<?xml version="1.0" encoding="utf-8" ?>
<svg xmlns="http://www.w3.org/2000/svg" xmlns:xlink="http://www.w3.org/1999/xlink" width="465" height="330">
	<path fill="white" d="M15 80L465 80L465 330L15 330L15 80Z"/>
	<path fill="white" d="M31 290L31 250Q31 249.755 31.012 249.509Q31.0241 249.264 31.0482 249.02Q31.0722 248.776 31.1082 248.533Q31.1443 248.29 31.1921 248.049Q31.24 247.808 31.2997 247.57Q31.3593 247.332 31.4306 247.097Q31.5019 246.862 31.5846 246.631Q31.6673 246.4 31.7612 246.173Q31.8551 245.946 31.9601 245.724Q32.0651 245.503 32.1808 245.286Q32.2965 245.07 32.4227 244.859Q32.5489 244.648 32.6853 244.444Q32.8217 244.24 32.9679 244.043Q33.1142 243.846 33.2699 243.656Q33.4256 243.466 33.5905 243.284Q33.7553 243.103 33.9289 242.929Q34.1025 242.755 34.2844 242.59Q34.4663 242.426 34.6561 242.27Q34.8458 242.114 35.043 241.968Q35.2402 241.822 35.4443 241.685Q35.6484 241.549 35.859 241.423Q36.0695 241.297 36.286 241.181Q36.5025 241.065 36.7244 240.96Q36.9464 240.855 37.1732 240.761Q37.4 240.667 37.6311 240.585Q37.8622 240.502 38.0972 240.431Q38.3321 240.359 38.5702 240.3Q38.8083 240.24 39.0491 240.192Q39.2899 240.144 39.5327 240.108Q39.7755 240.072 40.0198 240.048Q40.2641 240.024 40.5093 240.012Q40.7545 240 41 240L129 240Q129.245 240 129.491 240.012Q129.736 240.024 129.98 240.048Q130.224 240.072 130.467 240.108Q130.71 240.144 130.951 240.192Q131.192 240.24 131.43 240.3Q131.668 240.359 131.903 240.431Q132.138 240.502 132.369 240.585Q132.6 240.667 132.827 240.761Q133.054 240.855 133.276 240.96Q133.497 241.065 133.714 241.181Q133.93 241.297 134.141 241.423Q134.352 241.549 134.556 241.685Q134.76 241.822 134.957 241.968Q135.154 242.114 135.344 242.27Q135.534 242.426 135.716 242.59Q135.897 242.755 136.071 242.929Q136.245 243.103 136.41 243.284Q136.574 243.466 136.73 243.656Q136.886 243.846 137.032 244.043Q137.178 244.24 137.315 244.444Q137.451 244.648 137.577 244.859Q137.703 245.07 137.819 245.286Q137.935 245.503 138.04 245.724Q138.145 245.946 138.239 246.173Q138.333 246.4 138.415 246.631Q138.498 246.862 138.569 247.097Q138.641 247.332 138.7 247.57Q138.76 247.808 138.808 248.049Q138.856 248.29 138.892 248.533Q138.928 248.776 138.952 249.02Q138.976 249.264 138.988 249.509Q139 249.755 139 250L139 290Q139 290.245 138.988 290.491Q138.976 290.736 138.952 290.98Q138.928 291.225 138.892 291.467Q138.856 291.71 138.808 291.951Q138.76 292.192 138.7 292.43Q138.641 292.668 138.569 292.903Q138.498 293.138 138.415 293.369Q138.333 293.6 138.239 293.827Q138.145 294.054 138.04 294.276Q137.935 294.497 137.819 294.714Q137.703 294.93 137.577 295.141Q137.451 295.352 137.315 295.556Q137.178 295.76 137.032 295.957Q136.886 296.154 136.73 296.344Q136.574 296.534 136.41 296.716Q136.245 296.897 136.071 297.071Q135.897 297.245 135.716 297.409Q135.534 297.574 135.344 297.73Q135.154 297.886 134.957 298.032Q134.76 298.178 134.556 298.315Q134.352 298.451 134.141 298.577Q133.93 298.703 133.714 298.819Q133.497 298.935 133.276 299.04Q133.054 299.145 132.827 299.239Q132.6 299.333 132.369 299.415Q132.138 299.498 131.903 299.569Q131.668 299.641 131.43 299.7Q131.192 299.76 130.951 299.808Q130.71 299.856 130.467 299.892Q130.224 299.928 129.98 299.952Q129.736 299.976 129.491 299.988Q129.245 300 129 300L41 300Q40.7545 300 40.5093 299.988Q40.2641 299.976 40.0198 299.952Q39.7755 299.928 39.5327 299.892Q39.2899 299.856 39.0491 299.808Q38.8083 299.76 38.5702 299.7Q38.3321 299.641 38.0972 299.569Q37.8622 299.498 37.6311 299.415Q37.4 299.333 37.1732 299.239Q36.9464 299.145 36.7244 299.04Q36.5025 298.935 36.286 298.819Q36.0695 298.703 35.859 298.577Q35.6484 298.451 35.4443 298.315Q35.2402 298.178 35.043 298.032Q34.8458 297.886 34.6561 297.73Q34.4663 297.574 34.2844 297.409Q34.1025 297.245 33.9289 297.071Q33.7553 296.897 33.5905 296.716Q33.4256 296.534 33.2699 296.344Q33.1142 296.154 32.9679 295.957Q32.8217 295.76 32.6853 295.556Q32.5489 295.352 32.4227 295.141Q32.2965 294.93 32.1808 294.714Q32.0651 294.497 31.9601 294.276Q31.8551 294.054 31.7612 293.827Q31.6673 293.6 31.5846 293.369Q31.5019 293.138 31.4306 292.903Q31.3593 292.668 31.2997 292.43Q31.24 292.192 31.1921 291.951Q31.1443 291.71 31.1082 291.467Q31.0722 291.225 31.0482 290.98Q31.0241 290.736 31.012 290.491Q31 290.245 31 290Z"/>
	<path fill="none" stroke="black" stroke-width="1" stroke-miterlimit="4" d="M31 290L31 250Q31 249.755 31.012 249.509Q31.0241 249.264 31.0482 249.02Q31.0722 248.776 31.1082 248.533Q31.1443 248.29 31.1921 248.049Q31.24 247.808 31.2997 247.57Q31.3593 247.332 31.4306 247.097Q31.5019 246.862 31.5846 246.631Q31.6673 246.4 31.7612 246.173Q31.8551 245.946 31.9601 245.724Q32.0651 245.503 32.1808 245.286Q32.2965 245.07 32.4227 244.859Q32.5489 244.648 32.6853 244.444Q32.8217 244.24 32.9679 244.043Q33.1142 243.846 33.2699 243.656Q33.4256 243.466 33.5905 243.284Q33.7553 243.103 33.9289 242.929Q34.1025 242.755 34.2844 242.59Q34.4663 242.426 34.6561 242.27Q34.8458 242.114 35.043 241.968Q35.2402 241.822 35.4443 241.685Q35.6484 241.549 35.859 241.423Q36.0695 241.297 36.286 241.181Q36.5025 241.065 36.7244 240.96Q36.9464 240.855 37.1732 240.761Q37.4 240.667 37.6311 240.585Q37.8622 240.502 38.0972 240.431Q38.3321 240.359 38.5702 240.3Q38.8083 240.24 39.0491 240.192Q39.2899 240.144 39.5327 240.108Q39.7755 240.072 40.0198 240.048Q40.2641 240.024 40.5093 240.012Q40.7545 240 41 240L129 240Q129.245 240 129.491 240.012Q129.736 240.024 129.98 240.048Q130.224 240.072 130.467 240.108Q130.71 240.144 130.951 240.192Q131.192 240.24 131.43 240.3Q131.668 240.359 131.903 240.431Q132.138 240.502 132.369 240.585Q132.6 240.667 132.827 240.761Q133.054 240.855 133.276 240.96Q133.497 241.065 133.714 241.181Q133.93 241.297 134.141 241.423Q134.352 241.549 134.556 241.685Q134.76 241.822 134.957 241.968Q135.154 242.114 135.344 242.27Q135.534 242.426 135.716 242.59Q135.897 242.755 136.071 242.929Q136.245 243.103 136.41 243.284Q136.574 243.466 136.73 243.656Q136.886 243.846 137.032 244.043Q137.178 244.24 137.315 244.444Q137.451 244.648 137.577 244.859Q137.703 245.07 137.819 245.286Q137.935 245.503 138.04 245.724Q138.145 245.946 138.239 246.173Q138.333 246.4 138.415 246.631Q138.498 246.862 138.569 247.097Q138.641 247.332 138.7 247.57Q138.76 247.808 138.808 248.049Q138.856 248.29 138.892 248.533Q138.928 248.776 138.952 249.02Q138.976 249.264 138.988 249.509Q139 249.755 139 250L139 290Q139 290.245 138.988 290.491Q138.976 290.736 138.952 290.98Q138.928 291.225 138.892 291.467Q138.856 291.71 138.808 291.951Q138.76 292.192 138.7 292.43Q138.641 292.668 138.569 292.903Q138.498 293.138 138.415 293.369Q138.333 293.6 138.239 293.827Q138.145 294.054 138.04 294.276Q137.935 294.497 137.819 294.714Q137.703 294.93 137.577 295.141Q137.451 295.352 137.315 295.556Q137.178 295.76 137.032 295.957Q136.886 296.154 136.73 296.344Q136.574 296.534 136.41 296.716Q136.245 296.897 136.071 297.071Q135.897 297.245 135.716 297.409Q135.534 297.574 135.344 297.73Q135.154 297.886 134.957 298.032Q134.76 298.178 134.556 298.315Q134.352 298.451 134.141 298.577Q133.93 298.703 133.714 298.819Q133.497 298.935 133.276 299.04Q133.054 299.145 132.827 299.239Q132.6 299.333 132.369 299.415Q132.138 299.498 131.903 299.569Q131.668 299.641 131.43 299.7Q131.192 299.76 130.951 299.808Q130.71 299.856 130.467 299.892Q130.224 299.928 129.98 299.952Q129.736 299.976 129.491 299.988Q129.245 300 129 300L41 300Q40.7545 300 40.5093 299.988Q40.2641 299.976 40.0198 299.952Q39.7755 299.928 39.5327 299.892Q39.2899 299.856 39.0491 299.808Q38.8083 299.76 38.5702 299.7Q38.3321 299.641 38.0972 299.569Q37.8622 299.498 37.6311 299.415Q37.4 299.333 37.1732 299.239Q36.9464 299.145 36.7244 299.04Q36.5025 298.935 36.286 298.819Q36.0695 298.703 35.859 298.577Q35.6484 298.451 35.4443 298.315Q35.2402 298.178 35.043 298.032Q34.8458 297.886 34.6561 297.73Q34.4663 297.574 34.2844 297.409Q34.1025 297.245 33.9289 297.071Q33.7553 296.897 33.5905 296.716Q33.4256 296.534 33.2699 296.344Q33.1142 296.154 32.9679 295.957Q32.8217 295.76 32.6853 295.556Q32.5489 295.352 32.4227 295.141Q32.2965 294.93 32.1808 294.714Q32.0651 294.497 31.9601 294.276Q31.8551 294.054 31.7612 293.827Q31.6673 293.6 31.5846 293.369Q31.5019 293.138 31.4306 292.903Q31.3593 292.668 31.2997 292.43Q31.24 292.192 31.1921 291.951Q31.1443 291.71 31.1082 291.467Q31.0722 291.225 31.0482 290.98Q31.0241 290.736 31.012 290.491Q31 290.245 31 290Z"/>
	<text font-size="14" font-family="Nimbus Sans" x="80.5, " y="273.5, ">
			A
	</text>
	<ellipse fill="white" cx="58" cy="240" rx="10" ry="10"/>
	<ellipse fill="none" stroke="black" stroke-width="1" stroke-miterlimit="4" cx="58" cy="240" rx="10" ry="10"/>
	<path fill="white" d="M336 290L336 250Q336 249.755 336.012 249.509Q336.024 249.264 336.048 249.02Q336.072 248.776 336.108 248.533Q336.144 248.29 336.192 248.049Q336.24 247.808 336.3 247.57Q336.359 247.332 336.431 247.097Q336.502 246.862 336.585 246.631Q336.667 246.4 336.761 246.173Q336.855 245.946 336.96 245.724Q337.065 245.503 337.181 245.286Q337.296 245.07 337.423 244.859Q337.549 244.648 337.685 244.444Q337.822 244.24 337.968 244.043Q338.114 243.846 338.27 243.656Q338.426 243.466 338.59 243.284Q338.755 243.103 338.929 242.929Q339.103 242.755 339.284 242.59Q339.466 242.426 339.656 242.27Q339.846 242.114 340.043 241.968Q340.24 241.822 340.444 241.685Q340.648 241.549 340.859 241.423Q341.069 241.297 341.286 241.181Q341.502 241.065 341.724 240.96Q341.946 240.855 342.173 240.761Q342.4 240.667 342.631 240.585Q342.862 240.502 343.097 240.431Q343.332 240.359 343.57 240.3Q343.808 240.24 344.049 240.192Q344.29 240.144 344.533 240.108Q344.776 240.072 345.02 240.048Q345.264 240.024 345.509 240.012Q345.754 240 346 240L434 240Q434.245 240 434.491 240.012Q434.736 240.024 434.98 240.048Q435.224 240.072 435.467 240.108Q435.71 240.144 435.951 240.192Q436.192 240.24 436.43 240.3Q436.668 240.359 436.903 240.431Q437.138 240.502 437.369 240.585Q437.6 240.667 437.827 240.761Q438.054 240.855 438.276 240.96Q438.497 241.065 438.714 241.181Q438.93 241.297 439.141 241.423Q439.352 241.549 439.556 241.685Q439.76 241.822 439.957 241.968Q440.154 242.114 440.344 242.27Q440.534 242.426 440.716 242.59Q440.897 242.755 441.071 242.929Q441.245 243.103 441.41 243.284Q441.574 243.466 441.73 243.656Q441.886 243.846 442.032 244.043Q442.178 244.24 442.315 244.444Q442.451 244.648 442.577 244.859Q442.703 245.07 442.819 245.286Q442.935 245.503 443.04 245.724Q443.145 245.946 443.239 246.173Q443.333 246.4 443.415 246.631Q443.498 246.862 443.569 247.097Q443.641 247.332 443.7 247.57Q443.76 247.808 443.808 248.049Q443.856 248.29 443.892 248.533Q443.928 248.776 443.952 249.02Q443.976 249.264 443.988 249.509Q444 249.755 444 250L444 290Q444 290.245 443.988 290.491Q443.976 290.736 443.952 290.98Q443.928 291.225 443.892 291.467Q443.856 291.71 443.808 291.951Q443.76 292.192 443.7 292.43Q443.641 292.668 443.569 292.903Q443.498 293.138 443.415 293.369Q443.333 293.6 443.239 293.827Q443.145 294.054 443.04 294.276Q442.935 294.497 442.819 294.714Q442.703 294.93 442.577 295.141Q442.451 295.352 442.315 295.556Q442.178 295.76 442.032 295.957Q441.886 296.154 441.73 296.344Q441.574 296.534 441.41 296.716Q441.245 296.897 441.071 297.071Q440.897 297.245 440.716 297.409Q440.534 297.574 440.344 297.73Q440.154 297.886 439.957 298.032Q439.76 298.178 439.556 298.315Q439.352 298.451 439.141 298.577Q438.93 298.703 438.714 298.819Q438.497 298.935 438.276 299.04Q438.054 299.145 437.827 299.239Q437.6 299.333 437.369 299.415Q437.138 299.498 436.903 299.569Q436.668 299.641 436.43 299.7Q436.192 299.76 435.951 299.808Q435.71 299.856 435.467 299.892Q435.224 299.928 434.98 299.952Q434.736 299.976 434.491 299.988Q434.245 300 434 300L346 300Q345.754 300 345.509 299.988Q345.264 299.976 345.02 299.952Q344.776 299.928 344.533 299.892Q344.29 299.856 344.049 299.808Q343.808 299.76 343.57 299.7Q343.332 299.641 343.097 299.569Q342.862 299.498 342.631 299.415Q342.4 299.333 342.173 299.239Q341.946 299.145 341.724 299.04Q341.502 298.935 341.286 298.819Q341.07 298.703 340.859 298.577Q340.648 298.451 340.444 298.315Q340.24 298.178 340.043 298.032Q339.846 297.886 339.656 297.73Q339.466 297.574 339.284 297.409Q339.103 297.245 338.929 297.071Q338.755 296.897 338.59 296.716Q338.426 296.534 338.27 296.344Q338.114 296.154 337.968 295.957Q337.822 295.76 337.685 295.556Q337.549 295.352 337.423 295.141Q337.296 294.93 337.181 294.714Q337.065 294.497 336.96 294.276Q336.855 294.054 336.761 293.827Q336.667 293.6 336.585 293.369Q336.502 293.138 336.431 292.903Q336.359 292.668 336.3 292.43Q336.24 292.192 336.192 291.951Q336.144 291.71 336.108 291.467Q336.072 291.225 336.048 290.98Q336.024 290.736 336.012 290.491Q336 290.245 336 290Z"/>
	<path fill="none" stroke="black" stroke-width="1" stroke-miterlimit="4" d="M336 290L336 250Q336 249.755 336.012 249.509Q336.024 249.264 336.048 249.02Q336.072 248.776 336.108 248.533Q336.144 248.29 336.192 248.049Q336.24 247.808 336.3 247.57Q336.359 247.332 336.431 247.097Q336.502 246.862 336.585 246.631Q336.667 246.4 336.761 246.173Q336.855 245.946 336.96 245.724Q337.065 245.503 337.181 245.286Q337.296 245.07 337.423 244.859Q337.549 244.648 337.685 244.444Q337.822 244.24 337.968 244.043Q338.114 243.846 338.27 243.656Q338.426 243.466 338.59 243.284Q338.755 243.103 338.929 242.929Q339.103 242.755 339.284 242.59Q339.466 242.426 339.656 242.27Q339.846 242.114 340.043 241.968Q340.24 241.822 340.444 241.685Q340.648 241.549 340.859 241.423Q341.069 241.297 341.286 241.181Q341.502 241.065 341.724 240.96Q341.946 240.855 342.173 240.761Q342.4 240.667 342.631 240.585Q342.862 240.502 343.097 240.431Q343.332 240.359 343.57 240.3Q343.808 240.24 344.049 240.192Q344.29 240.144 344.533 240.108Q344.776 240.072 345.02 240.048Q345.264 240.024 345.509 240.012Q345.754 240 346 240L434 240Q434.245 240 434.491 240.012Q434.736 240.024 434.98 240.048Q435.224 240.072 435.467 240.108Q435.71 240.144 435.951 240.192Q436.192 240.24 436.43 240.3Q436.668 240.359 436.903 240.431Q437.138 240.502 437.369 240.585Q437.6 240.667 437.827 240.761Q438.054 240.855 438.276 240.96Q438.497 241.065 438.714 241.181Q438.93 241.297 439.141 241.423Q439.352 241.549 439.556 241.685Q439.76 241.822 439.957 241.968Q440.154 242.114 440.344 242.27Q440.534 242.426 440.716 242.59Q440.897 242.755 441.071 242.929Q441.245 243.103 441.41 243.284Q441.574 243.466 441.73 243.656Q441.886 243.846 442.032 244.043Q442.178 244.24 442.315 244.444Q442.451 244.648 442.577 244.859Q442.703 245.07 442.819 245.286Q442.935 245.503 443.04 245.724Q443.145 245.946 443.239 246.173Q443.333 246.4 443.415 246.631Q443.498 246.862 443.569 247.097Q443.641 247.332 443.7 247.57Q443.76 247.808 443.808 248.049Q443.856 248.29 443.892 248.533Q443.928 248.776 443.952 249.02Q443.976 249.264 443.988 249.509Q444 249.755 444 250L444 290Q444 290.245 443.988 290.491Q443.976 290.736 443.952 290.98Q443.928 291.225 443.892 291.467Q443.856 291.71 443.808 291.951Q443.76 292.192 443.7 292.43Q443.641 292.668 443.569 292.903Q443.498 293.138 443.415 293.369Q443.333 293.6 443.239 293.827Q443.145 294.054 443.04 294.276Q442.935 294.497 442.819 294.714Q442.703 294.93 442.577 295.141Q442.451 295.352 442.315 295.556Q442.178 295.76 442.032 295.957Q441.886 296.154 441.73 296.344Q441.574 296.534 441.41 296.716Q441.245 296.897 441.071 297.071Q440.897 297.245 440.716 297.409Q440.534 297.574 440.344 297.73Q440.154 297.886 439.957 298.032Q439.76 298.178 439.556 298.315Q439.352 298.451 439.141 298.577Q438.93 298.703 438.714 298.819Q438.497 298.935 438.276 299.04Q438.054 299.145 437.827 299.239Q437.6 299.333 437.369 299.415Q437.138 299.498 436.903 299.569Q436.668 299.641 436.43 299.7Q436.192 299.76 435.951 299.808Q435.71 299.856 435.467 299.892Q435.224 299.928 434.98 299.952Q434.736 299.976 434.491 299.988Q434.245 300 434 300L346 300Q345.754 300 345.509 299.988Q345.264 299.976 345.02 299.952Q344.776 299.928 344.533 299.892Q344.29 299.856 344.049 299.808Q343.808 299.76 343.57 299.7Q343.332 299.641 343.097 299.569Q342.862 299.498 342.631 299.415Q342.4 299.333 342.173 299.239Q341.946 299.145 341.724 299.04Q341.502 298.935 341.286 298.819Q341.07 298.703 340.859 298.577Q340.648 298.451 340.444 298.315Q340.24 298.178 340.043 298.032Q339.846 297.886 339.656 297.73Q339.466 297.574 339.284 297.409Q339.103 297.245 338.929 297.071Q338.755 296.897 338.59 296.716Q338.426 296.534 338.27 296.344Q338.114 296.154 337.968 295.957Q337.822 295.76 337.685 295.556Q337.549 295.352 337.423 295.141Q337.296 294.93 337.181 294.714Q337.065 294.497 336.96 294.276Q336.855 294.054 336.761 293.827Q336.667 293.6 336.585 293.369Q336.502 293.138 336.431 292.903Q336.359 292.668 336.3 292.43Q336.24 292.192 336.192 291.951Q336.144 291.71 336.108 291.467Q336.072 291.225 336.048 290.98Q336.024 290.736 336.012 290.491Q336 290.245 336 290Z"/>
	<text font-size="14" font-family="Nimbus Sans" x="385.5, " y="273.5, ">
			A
	</text>
	<path fill="white" d="M351 240L351 240Q351 239.755 351.012 239.509Q351.024 239.264 351.048 239.02Q351.072 238.776 351.108 238.533Q351.144 238.29 351.192 238.049Q351.24 237.808 351.3 237.57Q351.359 237.332 351.431 237.097Q351.502 236.862 351.585 236.631Q351.667 236.4 351.761 236.173Q351.855 235.946 351.96 235.724Q352.065 235.503 352.181 235.286Q352.296 235.07 352.423 234.859Q352.549 234.648 352.685 234.444Q352.822 234.24 352.968 234.043Q353.114 233.846 353.27 233.656Q353.426 233.466 353.59 233.284Q353.755 233.102 353.929 232.929Q354.102 232.755 354.284 232.59Q354.466 232.426 354.656 232.27Q354.846 232.114 355.043 231.968Q355.24 231.822 355.444 231.685Q355.648 231.549 355.859 231.423Q356.069 231.296 356.286 231.181Q356.502 231.065 356.724 230.96Q356.946 230.855 357.173 230.761Q357.4 230.667 357.631 230.585Q357.862 230.502 358.097 230.431Q358.332 230.359 358.57 230.3Q358.808 230.24 359.049 230.192Q359.29 230.144 359.533 230.108Q359.776 230.072 360.02 230.048Q360.264 230.024 360.509 230.012Q360.754 230 361 230L365 230Q365.245 230 365.491 230.012Q365.736 230.024 365.98 230.048Q366.224 230.072 366.467 230.108Q366.71 230.144 366.951 230.192Q367.192 230.24 367.43 230.3Q367.668 230.359 367.903 230.431Q368.138 230.502 368.369 230.585Q368.6 230.667 368.827 230.761Q369.054 230.855 369.276 230.96Q369.497 231.065 369.714 231.181Q369.93 231.296 370.141 231.423Q370.352 231.549 370.556 231.685Q370.76 231.822 370.957 231.968Q371.154 232.114 371.344 232.27Q371.534 232.426 371.716 232.59Q371.897 232.755 372.071 232.929Q372.245 233.102 372.409 233.284Q372.574 233.466 372.73 233.656Q372.886 233.846 373.032 234.043Q373.178 234.24 373.315 234.444Q373.451 234.648 373.577 234.859Q373.703 235.07 373.819 235.286Q373.935 235.503 374.04 235.724Q374.145 235.946 374.239 236.173Q374.333 236.4 374.415 236.631Q374.498 236.862 374.569 237.097Q374.641 237.332 374.7 237.57Q374.76 237.808 374.808 238.049Q374.856 238.29 374.892 238.533Q374.928 238.776 374.952 239.02Q374.976 239.264 374.988 239.509Q375 239.755 375 240L375 240Q375 240.245 374.988 240.491Q374.976 240.736 374.952 240.98Q374.928 241.224 374.892 241.467Q374.856 241.71 374.808 241.951Q374.76 242.192 374.7 242.43Q374.641 242.668 374.569 242.903Q374.498 243.138 374.415 243.369Q374.333 243.6 374.239 243.827Q374.145 244.054 374.04 244.276Q373.935 244.497 373.819 244.714Q373.703 244.93 373.577 245.141Q373.451 245.352 373.315 245.556Q373.178 245.76 373.032 245.957Q372.886 246.154 372.73 246.344Q372.574 246.534 372.409 246.716Q372.245 246.897 372.071 247.071Q371.897 247.245 371.716 247.409Q371.534 247.574 371.344 247.73Q371.154 247.886 370.957 248.032Q370.76 248.178 370.556 248.315Q370.352 248.451 370.141 248.577Q369.93 248.703 369.714 248.819Q369.497 248.935 369.275 249.04Q369.054 249.145 368.827 249.239Q368.6 249.333 368.369 249.415Q368.138 249.498 367.903 249.569Q367.668 249.641 367.43 249.7Q367.192 249.76 366.951 249.808Q366.71 249.856 366.467 249.892Q366.224 249.928 365.98 249.952Q365.736 249.976 365.491 249.988Q365.245 250 365 250L361 250Q360.754 250 360.509 249.988Q360.264 249.976 360.02 249.952Q359.776 249.928 359.533 249.892Q359.29 249.856 359.049 249.808Q358.808 249.76 358.57 249.7Q358.332 249.641 358.097 249.569Q357.862 249.498 357.631 249.415Q357.4 249.333 357.173 249.239Q356.946 249.145 356.724 249.04Q356.502 248.935 356.286 248.819Q356.069 248.703 355.859 248.577Q355.648 248.451 355.444 248.315Q355.24 248.178 355.043 248.032Q354.846 247.886 354.656 247.73Q354.466 247.574 354.284 247.409Q354.102 247.245 353.929 247.071Q353.755 246.897 353.59 246.716Q353.426 246.534 353.27 246.344Q353.114 246.154 352.968 245.957Q352.822 245.76 352.685 245.556Q352.549 245.352 352.423 245.141Q352.296 244.93 352.181 244.714Q352.065 244.497 351.96 244.276Q351.855 244.054 351.761 243.827Q351.667 243.6 351.585 243.369Q351.502 243.138 351.431 242.903Q351.359 242.668 351.3 242.43Q351.24 242.192 351.192 241.951Q351.144 241.71 351.108 241.467Q351.072 241.224 351.048 240.98Q351.024 240.736 351.012 240.491Q351 240.245 351 240Z"/>
	<path fill="none" stroke="black" stroke-width="1" stroke-miterlimit="4" d="M351 240L351 240Q351 239.755 351.012 239.509Q351.024 239.264 351.048 239.02Q351.072 238.776 351.108 238.533Q351.144 238.29 351.192 238.049Q351.24 237.808 351.3 237.57Q351.359 237.332 351.431 237.097Q351.502 236.862 351.585 236.631Q351.667 236.4 351.761 236.173Q351.855 235.946 351.96 235.724Q352.065 235.503 352.181 235.286Q352.296 235.07 352.423 234.859Q352.549 234.648 352.685 234.444Q352.822 234.24 352.968 234.043Q353.114 233.846 353.27 233.656Q353.426 233.466 353.59 233.284Q353.755 233.102 353.929 232.929Q354.102 232.755 354.284 232.59Q354.466 232.426 354.656 232.27Q354.846 232.114 355.043 231.968Q355.24 231.822 355.444 231.685Q355.648 231.549 355.859 231.423Q356.069 231.296 356.286 231.181Q356.502 231.065 356.724 230.96Q356.946 230.855 357.173 230.761Q357.4 230.667 357.631 230.585Q357.862 230.502 358.097 230.431Q358.332 230.359 358.57 230.3Q358.808 230.24 359.049 230.192Q359.29 230.144 359.533 230.108Q359.776 230.072 360.02 230.048Q360.264 230.024 360.509 230.012Q360.754 230 361 230L365 230Q365.245 230 365.491 230.012Q365.736 230.024 365.98 230.048Q366.224 230.072 366.467 230.108Q366.71 230.144 366.951 230.192Q367.192 230.24 367.43 230.3Q367.668 230.359 367.903 230.431Q368.138 230.502 368.369 230.585Q368.6 230.667 368.827 230.761Q369.054 230.855 369.276 230.96Q369.497 231.065 369.714 231.181Q369.93 231.296 370.141 231.423Q370.352 231.549 370.556 231.685Q370.76 231.822 370.957 231.968Q371.154 232.114 371.344 232.27Q371.534 232.426 371.716 232.59Q371.897 232.755 372.071 232.929Q372.245 233.102 372.409 233.284Q372.574 233.466 372.73 233.656Q372.886 233.846 373.032 234.043Q373.178 234.24 373.315 234.444Q373.451 234.648 373.577 234.859Q373.703 235.07 373.819 235.286Q373.935 235.503 374.04 235.724Q374.145 235.946 374.239 236.173Q374.333 236.4 374.415 236.631Q374.498 236.862 374.569 237.097Q374.641 237.332 374.7 237.57Q374.76 237.808 374.808 238.049Q374.856 238.29 374.892 238.533Q374.928 238.776 374.952 239.02Q374.976 239.264 374.988 239.509Q375 239.755 375 240L375 240Q375 240.245 374.988 240.491Q374.976 240.736 374.952 240.98Q374.928 241.224 374.892 241.467Q374.856 241.71 374.808 241.951Q374.76 242.192 374.7 242.43Q374.641 242.668 374.569 242.903Q374.498 243.138 374.415 243.369Q374.333 243.6 374.239 243.827Q374.145 244.054 374.04 244.276Q373.935 244.497 373.819 244.714Q373.703 244.93 373.577 245.141Q373.451 245.352 373.315 245.556Q373.178 245.76 373.032 245.957Q372.886 246.154 372.73 246.344Q372.574 246.534 372.409 246.716Q372.245 246.897 372.071 247.071Q371.897 247.245 371.716 247.409Q371.534 247.574 371.344 247.73Q371.154 247.886 370.957 248.032Q370.76 248.178 370.556 248.315Q370.352 248.451 370.141 248.577Q369.93 248.703 369.714 248.819Q369.497 248.935 369.275 249.04Q369.054 249.145 368.827 249.239Q368.6 249.333 368.369 249.415Q368.138 249.498 367.903 249.569Q367.668 249.641 367.43 249.7Q367.192 249.76 366.951 249.808Q366.71 249.856 366.467 249.892Q366.224 249.928 365.98 249.952Q365.736 249.976 365.491 249.988Q365.245 250 365 250L361 250Q360.754 250 360.509 249.988Q360.264 249.976 360.02 249.952Q359.776 249.928 359.533 249.892Q359.29 249.856 359.049 249.808Q358.808 249.76 358.57 249.7Q358.332 249.641 358.097 249.569Q357.862 249.498 357.631 249.415Q357.4 249.333 357.173 249.239Q356.946 249.145 356.724 249.04Q356.502 248.935 356.286 248.819Q356.069 248.703 355.859 248.577Q355.648 248.451 355.444 248.315Q355.24 248.178 355.043 248.032Q354.846 247.886 354.656 247.73Q354.466 247.574 354.284 247.409Q354.102 247.245 353.929 247.071Q353.755 246.897 353.59 246.716Q353.426 246.534 353.27 246.344Q353.114 246.154 352.968 245.957Q352.822 245.76 352.685 245.556Q352.549 245.352 352.423 245.141Q352.296 244.93 352.181 244.714Q352.065 244.497 351.96 244.276Q351.855 244.054 351.761 243.827Q351.667 243.6 351.585 243.369Q351.502 243.138 351.431 242.903Q351.359 242.668 351.3 242.43Q351.24 242.192 351.192 241.951Q351.144 241.71 351.108 241.467Q351.072 241.224 351.048 240.98Q351.024 240.736 351.012 240.491Q351 240.245 351 240Z"/>
	<text font-size="8" font-family="Nimbus Sans" x="360.5, " y="241.5, ">
			P
	</text>
	<path fill="white" d="M176 155L176 115Q176 114.755 176.012 114.509Q176.024 114.264 176.048 114.02Q176.072 113.776 176.108 113.533Q176.144 113.29 176.192 113.049Q176.24 112.808 176.3 112.57Q176.359 112.332 176.431 112.097Q176.502 111.862 176.585 111.631Q176.667 111.4 176.761 111.173Q176.855 110.946 176.96 110.724Q177.065 110.503 177.181 110.286Q177.297 110.07 177.423 109.859Q177.549 109.648 177.685 109.444Q177.822 109.24 177.968 109.043Q178.114 108.846 178.27 108.656Q178.426 108.466 178.59 108.284Q178.755 108.103 178.929 107.929Q179.103 107.755 179.284 107.59Q179.466 107.426 179.656 107.27Q179.846 107.114 180.043 106.968Q180.24 106.822 180.444 106.685Q180.648 106.549 180.859 106.423Q181.07 106.297 181.286 106.181Q181.503 106.065 181.724 105.96Q181.946 105.855 182.173 105.761Q182.4 105.667 182.631 105.585Q182.862 105.502 183.097 105.431Q183.332 105.359 183.57 105.3Q183.808 105.24 184.049 105.192Q184.29 105.144 184.533 105.108Q184.776 105.072 185.02 105.048Q185.264 105.024 185.509 105.012Q185.755 105 186 105L274 105Q274.245 105 274.491 105.012Q274.736 105.024 274.98 105.048Q275.224 105.072 275.467 105.108Q275.71 105.144 275.951 105.192Q276.192 105.24 276.43 105.3Q276.668 105.359 276.903 105.431Q277.138 105.502 277.369 105.585Q277.6 105.667 277.827 105.761Q278.054 105.855 278.276 105.96Q278.497 106.065 278.714 106.181Q278.93 106.297 279.141 106.423Q279.352 106.549 279.556 106.685Q279.76 106.822 279.957 106.968Q280.154 107.114 280.344 107.27Q280.534 107.426 280.716 107.59Q280.897 107.755 281.071 107.929Q281.245 108.103 281.409 108.284Q281.574 108.466 281.73 108.656Q281.886 108.846 282.032 109.043Q282.178 109.24 282.315 109.444Q282.451 109.648 282.577 109.859Q282.703 110.07 282.819 110.286Q282.935 110.503 283.04 110.724Q283.145 110.946 283.239 111.173Q283.333 111.4 283.415 111.631Q283.498 111.862 283.569 112.097Q283.641 112.332 283.7 112.57Q283.76 112.808 283.808 113.049Q283.856 113.29 283.892 113.533Q283.928 113.776 283.952 114.02Q283.976 114.264 283.988 114.509Q284 114.755 284 115L284 155Q284 155.245 283.988 155.491Q283.976 155.736 283.952 155.98Q283.928 156.224 283.892 156.467Q283.856 156.71 283.808 156.951Q283.76 157.192 283.7 157.43Q283.641 157.668 283.569 157.903Q283.498 158.138 283.415 158.369Q283.333 158.6 283.239 158.827Q283.145 159.054 283.04 159.276Q282.935 159.497 282.819 159.714Q282.703 159.93 282.577 160.141Q282.451 160.352 282.315 160.556Q282.178 160.76 282.032 160.957Q281.886 161.154 281.73 161.344Q281.574 161.534 281.409 161.716Q281.245 161.897 281.071 162.071Q280.897 162.245 280.716 162.409Q280.534 162.574 280.344 162.73Q280.154 162.886 279.957 163.032Q279.76 163.178 279.556 163.315Q279.352 163.451 279.141 163.577Q278.93 163.703 278.714 163.819Q278.497 163.935 278.276 164.04Q278.054 164.145 277.827 164.239Q277.6 164.333 277.369 164.415Q277.138 164.498 276.903 164.569Q276.668 164.641 276.43 164.7Q276.192 164.76 275.951 164.808Q275.71 164.856 275.467 164.892Q275.224 164.928 274.98 164.952Q274.736 164.976 274.491 164.988Q274.245 165 274 165L186 165Q185.755 165 185.509 164.988Q185.264 164.976 185.02 164.952Q184.776 164.928 184.533 164.892Q184.29 164.856 184.049 164.808Q183.808 164.76 183.57 164.7Q183.332 164.641 183.097 164.569Q182.862 164.498 182.631 164.415Q182.4 164.333 182.173 164.239Q181.946 164.145 181.724 164.04Q181.503 163.935 181.286 163.819Q181.07 163.703 180.859 163.577Q180.648 163.451 180.444 163.315Q180.24 163.178 180.043 163.032Q179.846 162.886 179.656 162.73Q179.466 162.574 179.284 162.409Q179.103 162.245 178.929 162.071Q178.755 161.897 178.59 161.716Q178.426 161.534 178.27 161.344Q178.114 161.154 177.968 160.957Q177.822 160.76 177.685 160.556Q177.549 160.352 177.423 160.141Q177.297 159.93 177.181 159.714Q177.065 159.497 176.96 159.276Q176.855 159.054 176.761 158.827Q176.667 158.6 176.585 158.369Q176.502 158.138 176.431 157.903Q176.359 157.668 176.3 157.43Q176.24 157.192 176.192 156.951Q176.144 156.71 176.108 156.467Q176.072 156.224 176.048 155.98Q176.024 155.736 176.012 155.491Q176 155.245 176 155Z"/>
	<path fill="none" stroke="black" stroke-width="1" stroke-miterlimit="4" d="M176 155L176 115Q176 114.755 176.012 114.509Q176.024 114.264 176.048 114.02Q176.072 113.776 176.108 113.533Q176.144 113.29 176.192 113.049Q176.24 112.808 176.3 112.57Q176.359 112.332 176.431 112.097Q176.502 111.862 176.585 111.631Q176.667 111.4 176.761 111.173Q176.855 110.946 176.96 110.724Q177.065 110.503 177.181 110.286Q177.297 110.07 177.423 109.859Q177.549 109.648 177.685 109.444Q177.822 109.24 177.968 109.043Q178.114 108.846 178.27 108.656Q178.426 108.466 178.59 108.284Q178.755 108.103 178.929 107.929Q179.103 107.755 179.284 107.59Q179.466 107.426 179.656 107.27Q179.846 107.114 180.043 106.968Q180.24 106.822 180.444 106.685Q180.648 106.549 180.859 106.423Q181.07 106.297 181.286 106.181Q181.503 106.065 181.724 105.96Q181.946 105.855 182.173 105.761Q182.4 105.667 182.631 105.585Q182.862 105.502 183.097 105.431Q183.332 105.359 183.57 105.3Q183.808 105.24 184.049 105.192Q184.29 105.144 184.533 105.108Q184.776 105.072 185.02 105.048Q185.264 105.024 185.509 105.012Q185.755 105 186 105L274 105Q274.245 105 274.491 105.012Q274.736 105.024 274.98 105.048Q275.224 105.072 275.467 105.108Q275.71 105.144 275.951 105.192Q276.192 105.24 276.43 105.3Q276.668 105.359 276.903 105.431Q277.138 105.502 277.369 105.585Q277.6 105.667 277.827 105.761Q278.054 105.855 278.276 105.96Q278.497 106.065 278.714 106.181Q278.93 106.297 279.141 106.423Q279.352 106.549 279.556 106.685Q279.76 106.822 279.957 106.968Q280.154 107.114 280.344 107.27Q280.534 107.426 280.716 107.59Q280.897 107.755 281.071 107.929Q281.245 108.103 281.409 108.284Q281.574 108.466 281.73 108.656Q281.886 108.846 282.032 109.043Q282.178 109.24 282.315 109.444Q282.451 109.648 282.577 109.859Q282.703 110.07 282.819 110.286Q282.935 110.503 283.04 110.724Q283.145 110.946 283.239 111.173Q283.333 111.4 283.415 111.631Q283.498 111.862 283.569 112.097Q283.641 112.332 283.7 112.57Q283.76 112.808 283.808 113.049Q283.856 113.29 283.892 113.533Q283.928 113.776 283.952 114.02Q283.976 114.264 283.988 114.509Q284 114.755 284 115L284 155Q284 155.245 283.988 155.491Q283.976 155.736 283.952 155.98Q283.928 156.224 283.892 156.467Q283.856 156.71 283.808 156.951Q283.76 157.192 283.7 157.43Q283.641 157.668 283.569 157.903Q283.498 158.138 283.415 158.369Q283.333 158.6 283.239 158.827Q283.145 159.054 283.04 159.276Q282.935 159.497 282.819 159.714Q282.703 159.93 282.577 160.141Q282.451 160.352 282.315 160.556Q282.178 160.76 282.032 160.957Q281.886 161.154 281.73 161.344Q281.574 161.534 281.409 161.716Q281.245 161.897 281.071 162.071Q280.897 162.245 280.716 162.409Q280.534 162.574 280.344 162.73Q280.154 162.886 279.957 163.032Q279.76 163.178 279.556 163.315Q279.352 163.451 279.141 163.577Q278.93 163.703 278.714 163.819Q278.497 163.935 278.276 164.04Q278.054 164.145 277.827 164.239Q277.6 164.333 277.369 164.415Q277.138 164.498 276.903 164.569Q276.668 164.641 276.43 164.7Q276.192 164.76 275.951 164.808Q275.71 164.856 275.467 164.892Q275.224 164.928 274.98 164.952Q274.736 164.976 274.491 164.988Q274.245 165 274 165L186 165Q185.755 165 185.509 164.988Q185.264 164.976 185.02 164.952Q184.776 164.928 184.533 164.892Q184.29 164.856 184.049 164.808Q183.808 164.76 183.57 164.7Q183.332 164.641 183.097 164.569Q182.862 164.498 182.631 164.415Q182.4 164.333 182.173 164.239Q181.946 164.145 181.724 164.04Q181.503 163.935 181.286 163.819Q181.07 163.703 180.859 163.577Q180.648 163.451 180.444 163.315Q180.24 163.178 180.043 163.032Q179.846 162.886 179.656 162.73Q179.466 162.574 179.284 162.409Q179.103 162.245 178.929 162.071Q178.755 161.897 178.59 161.716Q178.426 161.534 178.27 161.344Q178.114 161.154 177.968 160.957Q177.822 160.76 177.685 160.556Q177.549 160.352 177.423 160.141Q177.297 159.93 177.181 159.714Q177.065 159.497 176.96 159.276Q176.855 159.054 176.761 158.827Q176.667 158.6 176.585 158.369Q176.502 158.138 176.431 157.903Q176.359 157.668 176.3 157.43Q176.24 157.192 176.192 156.951Q176.144 156.71 176.108 156.467Q176.072 156.224 176.048 155.98Q176.024 155.736 176.012 155.491Q176 155.245 176 155Z"/>
	<text font-size="14" font-family="Nimbus Sans" x="225.5, " y="138.5, ">
			B
	</text>
	<path fill="white" d="M218 270L206 270"/>
	<path fill="none" stroke="black" stroke-width="1" stroke-miterlimit="4" d="M218 270L206 270"/>
	<path fill="white" d="M242 270L254 270"/>
	<path fill="none" stroke="black" stroke-width="1" stroke-miterlimit="4" d="M242 270L254 270"/>
	<rect fill="white" x="218" y="258" width="24" height="24"/>
	<rect fill="none" stroke="black" stroke-width="1" stroke-miterlimit="4" x="218" y="258" width="24" height="24"/>
	<path fill="none" stroke="black" stroke-width="1" stroke-miterlimit="4" d="M206 270L139 270"/>
	<path fill="none" stroke="black" stroke-width="1" stroke-miterlimit="4" d="M254 270L324 270"/>
	<path d="M324 270L324 264L336 270L324 276L324 270Z"/>
	<path fill="none" stroke="black" stroke-width="1" stroke-miterlimit="4" d="M324 270L324 264L336 270L324 276L324 270Z"/>
	<path fill="none" stroke="black" stroke-width="1" stroke-miterlimit="4" d="M230 165L230 247"/>
	<path fill="white" d="M230 247Q229.865 247 229.73 247.007Q229.595 247.013 229.461 247.026Q229.327 247.04 229.193 247.06Q229.059 247.079 228.927 247.106Q228.795 247.132 228.664 247.165Q228.533 247.198 228.403 247.237Q228.274 247.276 228.147 247.321Q228.02 247.367 227.895 247.419Q227.77 247.47 227.648 247.528Q227.526 247.586 227.407 247.649Q227.288 247.713 227.172 247.782Q227.057 247.852 226.944 247.927Q226.832 248.002 226.724 248.082Q226.615 248.163 226.511 248.248Q226.406 248.334 226.306 248.425Q226.206 248.515 226.111 248.611Q226.015 248.706 225.925 248.806Q225.834 248.906 225.748 249.011Q225.663 249.115 225.582 249.224Q225.502 249.332 225.427 249.444Q225.352 249.557 225.282 249.672Q225.213 249.788 225.149 249.907Q225.086 250.026 225.028 250.148Q224.97 250.27 224.919 250.395Q224.867 250.52 224.822 250.647Q224.776 250.774 224.737 250.903Q224.698 251.033 224.665 251.164Q224.632 251.295 224.606 251.427Q224.579 251.559 224.56 251.693Q224.54 251.827 224.526 251.961Q224.513 252.095 224.507 252.23Q224.5 252.365 224.5 252.5Q224.5 252.635 224.507 252.77Q224.513 252.905 224.526 253.039Q224.54 253.173 224.56 253.307Q224.579 253.441 224.606 253.573Q224.632 253.705 224.665 253.836Q224.698 253.967 224.737 254.097Q224.776 254.226 224.822 254.353Q224.867 254.48 224.919 254.605Q224.97 254.729 225.028 254.852Q225.086 254.974 225.149 255.093Q225.213 255.212 225.282 255.328Q225.352 255.443 225.427 255.556Q225.502 255.668 225.582 255.776Q225.663 255.885 225.748 255.989Q225.834 256.094 225.925 256.194Q226.015 256.294 226.111 256.389Q226.206 256.485 226.306 256.575Q226.406 256.666 226.511 256.752Q226.615 256.837 226.724 256.918Q226.832 256.998 226.944 257.073Q227.057 257.148 227.172 257.217Q227.288 257.287 227.407 257.351Q227.526 257.414 227.648 257.472Q227.77 257.53 227.895 257.581Q228.02 257.633 228.147 257.678Q228.274 257.724 228.403 257.763Q228.533 257.802 228.664 257.835Q228.795 257.868 228.927 257.894Q229.059 257.921 229.193 257.94Q229.327 257.96 229.461 257.974Q229.595 257.987 229.73 257.993Q229.865 258 230 258Q230.135 258 230.27 257.993Q230.405 257.987 230.539 257.974Q230.673 257.96 230.807 257.94Q230.941 257.921 231.073 257.894Q231.205 257.868 231.336 257.835Q231.467 257.802 231.597 257.763Q231.726 257.724 231.853 257.678Q231.98 257.633 232.105 257.581Q232.229 257.53 232.352 257.472Q232.474 257.414 232.593 257.351Q232.712 257.287 232.828 257.217Q232.943 257.148 233.056 257.073Q233.168 256.998 233.276 256.918Q233.385 256.837 233.489 256.752Q233.594 256.666 233.694 256.575Q233.794 256.485 233.889 256.389Q233.985 256.294 234.075 256.194Q234.166 256.094 234.252 255.989Q234.337 255.885 234.418 255.776Q234.498 255.668 234.573 255.556Q234.648 255.443 234.717 255.328Q234.787 255.212 234.851 255.093Q234.914 254.974 234.972 254.852Q235.03 254.729 235.081 254.605Q235.133 254.48 235.178 254.353Q235.224 254.226 235.263 254.097Q235.302 253.967 235.335 253.836Q235.368 253.705 235.394 253.573Q235.421 253.441 235.44 253.307Q235.46 253.173 235.474 253.039Q235.487 252.905 235.493 252.77Q235.5 252.635 235.5 252.5Q235.5 252.365 235.493 252.23Q235.487 252.095 235.474 251.961Q235.46 251.827 235.44 251.693Q235.421 251.559 235.394 251.427Q235.368 251.295 235.335 251.164Q235.302 251.033 235.263 250.903Q235.224 250.774 235.178 250.647Q235.133 250.52 235.081 250.395Q235.03 250.27 234.972 250.148Q234.914 250.026 234.851 249.907Q234.787 249.788 234.717 249.672Q234.648 249.557 234.573 249.444Q234.498 249.332 234.418 249.224Q234.337 249.115 234.252 249.011Q234.166 248.906 234.075 248.806Q233.985 248.706 233.889 248.611Q233.794 248.515 233.694 248.425Q233.594 248.334 233.489 248.248Q233.385 248.163 233.276 248.082Q233.168 248.002 233.056 247.927Q232.943 247.852 232.828 247.782Q232.712 247.713 232.593 247.649Q232.474 247.586 232.352 247.528Q232.229 247.47 232.105 247.419Q231.98 247.367 231.853 247.321Q231.726 247.276 231.597 247.237Q231.467 247.198 231.336 247.165Q231.205 247.132 231.073 247.106Q230.941 247.079 230.807 247.06Q230.673 247.04 230.539 247.027Q230.405 247.013 230.27 247.007Q230.135 247 230 247Z"/>
	<path fill="none" stroke="black" stroke-width="1" stroke-miterlimit="4" d="M230 247Q229.865 247 229.73 247.007Q229.595 247.013 229.461 247.026Q229.327 247.04 229.193 247.06Q229.059 247.079 228.927 247.106Q228.795 247.132 228.664 247.165Q228.533 247.198 228.403 247.237Q228.274 247.276 228.147 247.321Q228.02 247.367 227.895 247.419Q227.77 247.47 227.648 247.528Q227.526 247.586 227.407 247.649Q227.288 247.713 227.172 247.782Q227.057 247.852 226.944 247.927Q226.832 248.002 226.724 248.082Q226.615 248.163 226.511 248.248Q226.406 248.334 226.306 248.425Q226.206 248.515 226.111 248.611Q226.015 248.706 225.925 248.806Q225.834 248.906 225.748 249.011Q225.663 249.115 225.582 249.224Q225.502 249.332 225.427 249.444Q225.352 249.557 225.282 249.672Q225.213 249.788 225.149 249.907Q225.086 250.026 225.028 250.148Q224.97 250.27 224.919 250.395Q224.867 250.52 224.822 250.647Q224.776 250.774 224.737 250.903Q224.698 251.033 224.665 251.164Q224.632 251.295 224.606 251.427Q224.579 251.559 224.56 251.693Q224.54 251.827 224.526 251.961Q224.513 252.095 224.507 252.23Q224.5 252.365 224.5 252.5Q224.5 252.635 224.507 252.77Q224.513 252.905 224.526 253.039Q224.54 253.173 224.56 253.307Q224.579 253.441 224.606 253.573Q224.632 253.705 224.665 253.836Q224.698 253.967 224.737 254.097Q224.776 254.226 224.822 254.353Q224.867 254.48 224.919 254.605Q224.97 254.729 225.028 254.852Q225.086 254.974 225.149 255.093Q225.213 255.212 225.282 255.328Q225.352 255.443 225.427 255.556Q225.502 255.668 225.582 255.776Q225.663 255.885 225.748 255.989Q225.834 256.094 225.925 256.194Q226.015 256.294 226.111 256.389Q226.206 256.485 226.306 256.575Q226.406 256.666 226.511 256.752Q226.615 256.837 226.724 256.918Q226.832 256.998 226.944 257.073Q227.057 257.148 227.172 257.217Q227.288 257.287 227.407 257.351Q227.526 257.414 227.648 257.472Q227.77 257.53 227.895 257.581Q228.02 257.633 228.147 257.678Q228.274 257.724 228.403 257.763Q228.533 257.802 228.664 257.835Q228.795 257.868 228.927 257.894Q229.059 257.921 229.193 257.94Q229.327 257.96 229.461 257.974Q229.595 257.987 229.73 257.993Q229.865 258 230 258Q230.135 258 230.27 257.993Q230.405 257.987 230.539 257.974Q230.673 257.96 230.807 257.94Q230.941 257.921 231.073 257.894Q231.205 257.868 231.336 257.835Q231.467 257.802 231.597 257.763Q231.726 257.724 231.853 257.678Q231.98 257.633 232.105 257.581Q232.229 257.53 232.352 257.472Q232.474 257.414 232.593 257.351Q232.712 257.287 232.828 257.217Q232.943 257.148 233.056 257.073Q233.168 256.998 233.276 256.918Q233.385 256.837 233.489 256.752Q233.594 256.666 233.694 256.575Q233.794 256.485 233.889 256.389Q233.985 256.294 234.075 256.194Q234.166 256.094 234.252 255.989Q234.337 255.885 234.418 255.776Q234.498 255.668 234.573 255.556Q234.648 255.443 234.717 255.328Q234.787 255.212 234.851 255.093Q234.914 254.974 234.972 254.852Q235.03 254.729 235.081 254.605Q235.133 254.48 235.178 254.353Q235.224 254.226 235.263 254.097Q235.302 253.967 235.335 253.836Q235.368 253.705 235.394 253.573Q235.421 253.441 235.44 253.307Q235.46 253.173 235.474 253.039Q235.487 252.905 235.493 252.77Q235.5 252.635 235.5 252.5Q235.5 252.365 235.493 252.23Q235.487 252.095 235.474 251.961Q235.46 251.827 235.44 251.693Q235.421 251.559 235.394 251.427Q235.368 251.295 235.335 251.164Q235.302 251.033 235.263 250.903Q235.224 250.774 235.178 250.647Q235.133 250.52 235.081 250.395Q235.03 250.27 234.972 250.148Q234.914 250.026 234.851 249.907Q234.787 249.788 234.717 249.672Q234.648 249.557 234.573 249.444Q234.498 249.332 234.418 249.224Q234.337 249.115 234.252 249.011Q234.166 248.906 234.075 248.806Q233.985 248.706 233.889 248.611Q233.794 248.515 233.694 248.425Q233.594 248.334 233.489 248.248Q233.385 248.163 233.276 248.082Q233.168 248.002 233.056 247.927Q232.943 247.852 232.828 247.782Q232.712 247.713 232.593 247.649Q232.474 247.586 232.352 247.528Q232.229 247.47 232.105 247.419Q231.98 247.367 231.853 247.321Q231.726 247.276 231.597 247.237Q231.467 247.198 231.336 247.165Q231.205 247.132 231.073 247.106Q230.941 247.079 230.807 247.06Q230.673 247.04 230.539 247.027Q230.405 247.013 230.27 247.007Q230.135 247 230 247Z"/>
</svg>
