<?xml version="1.0" encoding="utf-8" ?>
<svg xmlns="http://www.w3.org/2000/svg" xmlns:xlink="http://www.w3.org/1999/xlink" width="465" height="330">
	<path fill="white" d="M15 80L465 80L465 330L15 330L15 80Z"/>
	<path fill="none" stroke="red" stroke-width="1" stroke-miterlimit="4" d="M15 80L465 80L465 330L15 330L15 80Z"/>
	<path fill="white" d="M36 240L134 240Q134.12274 240 134.24533 240.00601Q134.36792 240.01205 134.49008 240.02409Q134.61223 240.0361 134.73364 240.05411Q134.85504 240.07211 134.97543 240.09607Q135.09581 240.12001 135.21487 240.14983Q135.33395 240.17966 135.45142 240.2153Q135.56888 240.25092 135.68443 240.29227Q135.80002 240.33362 135.91341 240.38058Q136.02681 240.42755 136.13777 240.48003Q136.24872 240.5325 136.35696 240.59038Q136.46521 240.64822 136.5705 240.71132Q136.67578 240.77443 136.77783 240.84262Q136.8799 240.9108 136.97849 240.98392Q137.07709 241.05705 137.17197 241.13493Q137.26685 241.2128 137.35779 241.29523Q137.44873 241.37766 137.53552 241.46445Q137.62231 241.55124 137.70476 241.64218Q137.78719 241.73312 137.86505 241.82802Q137.94292 241.92288 138.01604 242.02145Q138.08914 242.12006 138.15733 242.22211Q138.22552 242.32416 138.28864 242.42944Q138.35175 242.53473 138.40961 242.64299Q138.46747 242.75124 138.51993 242.86218Q138.57242 242.97314 138.61938 243.08655Q138.66635 243.19995 138.70772 243.31552Q138.74908 243.43109 138.78471 243.54855Q138.82034 243.666 138.85016 243.78506Q138.87999 243.90413 138.90393 244.02452Q138.92789 244.14491 138.94589 244.26633Q138.9639 244.38776 138.97592 244.50992Q138.98795 244.63206 138.99397 244.75465Q139 244.87726 139 245L139 295Q139 295.12274 138.99396 295.2453Q138.98795 295.36792 138.97592 295.49008Q138.96388 295.61224 138.94588 295.73364Q138.92786 295.85504 138.90392 295.97543Q138.87997 296.09583 138.85016 296.2149Q138.82034 296.33395 138.7847 296.45142Q138.74907 296.56885 138.7077 296.68442Q138.66635 296.79999 138.61938 296.91339Q138.57242 297.02679 138.51993 297.13776Q138.46747 297.24872 138.40961 297.35699Q138.35175 297.46524 138.28864 297.5705Q138.22552 297.67578 138.15733 297.77783Q138.08914 297.87988 138.01602 297.97849Q137.94292 298.07709 137.86505 298.17197Q137.78719 298.26685 137.70476 298.35779Q137.62231 298.44873 137.53552 298.53552Q137.44873 298.62231 137.35779 298.70474Q137.26685 298.78717 137.17197 298.86505Q137.07709 298.9429 136.97849 299.01602Q136.8799 299.08914 136.77783 299.15735Q136.67578 299.22552 136.5705 299.28864Q136.46523 299.35175 136.35698 299.40961Q136.24872 299.46747 136.13777 299.51993Q136.02681 299.57239 135.91341 299.61938Q135.80002 299.66635 135.68443 299.7077Q135.56888 299.74908 135.45142 299.7847Q135.33395 299.82031 135.21487 299.85013Q135.09581 299.87994 134.97543 299.9039Q134.85504 299.92786 134.73364 299.94589Q134.61223 299.9639 134.49008 299.97595Q134.36792 299.98798 134.24533 299.99399Q134.12274 300 134 300L36 300Q35.877258 300 35.754662 299.99396Q35.632065 299.98795 35.509918 299.97592Q35.387764 299.96387 35.26635 299.94586Q35.144932 299.92786 35.024544 299.9039Q34.90416 299.87994 34.785095 299.85013Q34.666031 299.82031 34.548576 299.7847Q34.431114 299.74905 34.315548 299.7077Q34.199978 299.66632 34.086578 299.61935Q33.973179 299.57239 33.862221 299.5199Q33.751263 299.46747 33.643013 299.40961Q33.534763 299.35175 33.429482 299.28864Q33.324203 299.22552 33.222145 299.15732Q33.120087 299.08911 33.0215 299.01602Q32.922913 298.9429 32.828033 298.86505Q32.73315 298.78717 32.642204 298.70474Q32.551254 298.62231 32.464462 298.53552Q32.37767 298.44873 32.295238 298.35779Q32.212811 298.26685 32.134945 298.17197Q32.057076 298.07706 31.983955 297.97845Q31.910839 297.87985 31.842648 297.7778Q31.774456 297.67578 31.711353 297.5705Q31.648251 297.46521 31.590391 297.35696Q31.53253 297.24872 31.480049 297.13776Q31.42757 297.02679 31.380598 296.91339Q31.333626 296.79999 31.292274 296.68445Q31.250923 296.56885 31.215296 296.45142Q31.179665 296.33395 31.149839 296.21487Q31.120014 296.09583 31.096069 295.97543Q31.072124 295.85504 31.054115 295.73364Q31.036106 295.61224 31.024076 295.49008Q31.012045 295.36792 31.006023 295.24533Q31 295.12274 31 295L31 245Q31 244.87726 31.006023 244.75467Q31.012047 244.63206 31.024078 244.50992Q31.036108 244.38776 31.054115 244.26634Q31.072126 244.14493 31.096073 244.02454Q31.120018 243.90414 31.149845 243.78508Q31.179668 243.66602 31.215302 243.54857Q31.250931 243.43109 31.29228 243.31552Q31.33363 243.19997 31.380604 243.08658Q31.427574 242.97318 31.480057 242.86223Q31.532536 242.75127 31.590395 242.64302Q31.648254 242.53476 31.711357 242.42949Q31.77446 242.32419 31.842651 242.22214Q31.910843 242.12009 31.983961 242.02148Q32.057079 241.92291 32.134949 241.82805Q32.212814 241.73315 32.295246 241.64221Q32.377674 241.55125 32.464466 241.46446Q32.551258 241.37767 32.642204 241.29524Q32.733154 241.21281 32.828033 241.13495Q32.922913 241.05707 33.0215 240.98395Q33.120087 240.91083 33.222145 240.84264Q33.324203 240.77444 33.429482 240.71133Q33.534767 240.64824 33.643017 240.59039Q33.751266 240.53252 33.862225 240.48004Q33.973183 240.42755 34.086582 240.38058Q34.199982 240.33362 34.315552 240.29227Q34.431122 240.25092 34.54858 240.2153Q34.666039 240.17966 34.785103 240.14984Q34.904167 240.12001 35.024551 240.09607Q35.144936 240.07211 35.26635 240.05411Q35.387764 240.0361 35.509918 240.02408Q35.632069 240.01205 35.754665 240.00601Q35.877258 240 36 240Z"/>
	<path fill="none" stroke="black" stroke-width="1.25" stroke-miterlimit="4" d="M36 240L134 240Q134.12274 240 134.24533 240.00601Q134.36792 240.01205 134.49008 240.02409Q134.61223 240.0361 134.73364 240.05411Q134.85504 240.07211 134.97543 240.09607Q135.09581 240.12001 135.21487 240.14983Q135.33395 240.17966 135.45142 240.2153Q135.56888 240.25092 135.68443 240.29227Q135.80002 240.33362 135.91341 240.38058Q136.02681 240.42755 136.13777 240.48003Q136.24872 240.5325 136.35696 240.59038Q136.46521 240.64822 136.5705 240.71132Q136.67578 240.77443 136.77783 240.84262Q136.8799 240.9108 136.97849 240.98392Q137.07709 241.05705 137.17197 241.13493Q137.26685 241.2128 137.35779 241.29523Q137.44873 241.37766 137.53552 241.46445Q137.62231 241.55124 137.70476 241.64218Q137.78719 241.73312 137.86505 241.82802Q137.94292 241.92288 138.01604 242.02145Q138.08914 242.12006 138.15733 242.22211Q138.22552 242.32416 138.28864 242.42944Q138.35175 242.53473 138.40961 242.64299Q138.46747 242.75124 138.51993 242.86218Q138.57242 242.97314 138.61938 243.08655Q138.66635 243.19995 138.70772 243.31552Q138.74908 243.43109 138.78471 243.54855Q138.82034 243.666 138.85016 243.78506Q138.87999 243.90413 138.90393 244.02452Q138.92789 244.14491 138.94589 244.26633Q138.9639 244.38776 138.97592 244.50992Q138.98795 244.63206 138.99397 244.75465Q139 244.87726 139 245L139 295Q139 295.12274 138.99396 295.2453Q138.98795 295.36792 138.97592 295.49008Q138.96388 295.61224 138.94588 295.73364Q138.92786 295.85504 138.90392 295.97543Q138.87997 296.09583 138.85016 296.2149Q138.82034 296.33395 138.7847 296.45142Q138.74907 296.56885 138.7077 296.68442Q138.66635 296.79999 138.61938 296.91339Q138.57242 297.02679 138.51993 297.13776Q138.46747 297.24872 138.40961 297.35699Q138.35175 297.46524 138.28864 297.5705Q138.22552 297.67578 138.15733 297.77783Q138.08914 297.87988 138.01602 297.97849Q137.94292 298.07709 137.86505 298.17197Q137.78719 298.26685 137.70476 298.35779Q137.62231 298.44873 137.53552 298.53552Q137.44873 298.62231 137.35779 298.70474Q137.26685 298.78717 137.17197 298.86505Q137.07709 298.9429 136.97849 299.01602Q136.8799 299.08914 136.77783 299.15735Q136.67578 299.22552 136.5705 299.28864Q136.46523 299.35175 136.35698 299.40961Q136.24872 299.46747 136.13777 299.51993Q136.02681 299.57239 135.91341 299.61938Q135.80002 299.66635 135.68443 299.7077Q135.56888 299.74908 135.45142 299.7847Q135.33395 299.82031 135.21487 299.85013Q135.09581 299.87994 134.97543 299.9039Q134.85504 299.92786 134.73364 299.94589Q134.61223 299.9639 134.49008 299.97595Q134.36792 299.98798 134.24533 299.99399Q134.12274 300 134 300L36 300Q35.877258 300 35.754662 299.99396Q35.632065 299.98795 35.509918 299.97592Q35.387764 299.96387 35.26635 299.94586Q35.144932 299.92786 35.024544 299.9039Q34.90416 299.87994 34.785095 299.85013Q34.666031 299.82031 34.548576 299.7847Q34.431114 299.74905 34.315548 299.7077Q34.199978 299.66632 34.086578 299.61935Q33.973179 299.57239 33.862221 299.5199Q33.751263 299.46747 33.643013 299.40961Q33.534763 299.35175 33.429482 299.28864Q33.324203 299.22552 33.222145 299.15732Q33.120087 299.08911 33.0215 299.01602Q32.922913 298.9429 32.828033 298.86505Q32.73315 298.78717 32.642204 298.70474Q32.551254 298.62231 32.464462 298.53552Q32.37767 298.44873 32.295238 298.35779Q32.212811 298.26685 32.134945 298.17197Q32.057076 298.07706 31.983955 297.97845Q31.910839 297.87985 31.842648 297.7778Q31.774456 297.67578 31.711353 297.5705Q31.648251 297.46521 31.590391 297.35696Q31.53253 297.24872 31.480049 297.13776Q31.42757 297.02679 31.380598 296.91339Q31.333626 296.79999 31.292274 296.68445Q31.250923 296.56885 31.215296 296.45142Q31.179665 296.33395 31.149839 296.21487Q31.120014 296.09583 31.096069 295.97543Q31.072124 295.85504 31.054115 295.73364Q31.036106 295.61224 31.024076 295.49008Q31.012045 295.36792 31.006023 295.24533Q31 295.12274 31 295L31 245Q31 244.87726 31.006023 244.75467Q31.012047 244.63206 31.024078 244.50992Q31.036108 244.38776 31.054115 244.26634Q31.072126 244.14493 31.096073 244.02454Q31.120018 243.90414 31.149845 243.78508Q31.179668 243.66602 31.215302 243.54857Q31.250931 243.43109 31.29228 243.31552Q31.33363 243.19997 31.380604 243.08658Q31.427574 242.97318 31.480057 242.86223Q31.532536 242.75127 31.590395 242.64302Q31.648254 242.53476 31.711357 242.42949Q31.77446 242.32419 31.842651 242.22214Q31.910843 242.12009 31.983961 242.02148Q32.057079 241.92291 32.134949 241.82805Q32.212814 241.73315 32.295246 241.64221Q32.377674 241.55125 32.464466 241.46446Q32.551258 241.37767 32.642204 241.29524Q32.733154 241.21281 32.828033 241.13495Q32.922913 241.05707 33.0215 240.98395Q33.120087 240.91083 33.222145 240.84264Q33.324203 240.77444 33.429482 240.71133Q33.534767 240.64824 33.643017 240.59039Q33.751266 240.53252 33.862225 240.48004Q33.973183 240.42755 34.086582 240.38058Q34.199982 240.33362 34.315552 240.29227Q34.431122 240.25092 34.54858 240.2153Q34.666039 240.17966 34.785103 240.14984Q34.904167 240.12001 35.024551 240.09607Q35.144936 240.07211 35.26635 240.05411Q35.387764 240.0361 35.509918 240.02408Q35.632069 240.01205 35.754665 240.00601Q35.877258 240 36 240Z"/>
	<text font-size="14" font-family="Nimbus Sans" x="80.5, " y="273.5, ">
			A
	</text>
	<ellipse fill="white" cx="58" cy="240" rx="10" ry="10"/>
	<ellipse fill="none" stroke="black" stroke-width="1.25" stroke-miterlimit="4" cx="58" cy="240" rx="10" ry="10"/>
	<path fill="white" d="M341 240L439 240Q439.12274 240 439.24536 240.00601Q439.36795 240.01205 439.49011 240.02409Q439.61224 240.0361 439.73364 240.05411Q439.85504 240.07211 439.9754 240.09607Q440.09583 240.12001 440.21487 240.14983Q440.33395 240.17966 440.45142 240.2153Q440.56885 240.25092 440.68442 240.29227Q440.79999 240.33362 440.91339 240.38058Q441.02679 240.42755 441.13773 240.48003Q441.24872 240.5325 441.35699 240.59038Q441.46521 240.64822 441.5705 240.71132Q441.67578 240.77443 441.77783 240.84262Q441.87988 240.9108 441.97845 240.98392Q442.07703 241.05705 442.17194 241.13493Q442.26678 241.2128 442.35773 241.29523Q442.44867 241.37766 442.53549 241.46445Q442.62228 241.55124 442.70474 241.64218Q442.78717 241.73312 442.86505 241.82802Q442.9429 241.92288 443.01599 242.02145Q443.08911 242.12006 443.15732 242.22211Q443.22552 242.32416 443.28864 242.42944Q443.35175 242.53473 443.40961 242.64299Q443.46747 242.75124 443.51993 242.86218Q443.57239 242.97314 443.61938 243.08655Q443.66638 243.19995 443.70773 243.31552Q443.74908 243.43109 443.78473 243.54855Q443.82034 243.666 443.85016 243.78506Q443.87994 243.90413 443.9039 244.02452Q443.92786 244.14491 443.94589 244.26633Q443.96393 244.38776 443.97595 244.50992Q443.98798 244.63206 443.99399 244.75465Q444 244.87726 444 245L444 295Q444 295.12274 443.99399 295.2453Q443.98798 295.36792 443.97595 295.49008Q443.96393 295.61224 443.94589 295.73364Q443.92786 295.85504 443.9039 295.97543Q443.87994 296.09583 443.85013 296.2149Q443.82031 296.33395 443.7847 296.45142Q443.74908 296.56885 443.7077 296.68442Q443.66638 296.79999 443.61938 296.91339Q443.57239 297.02679 443.51993 297.13776Q443.46747 297.24872 443.40964 297.35699Q443.35175 297.46524 443.28864 297.5705Q443.22552 297.67578 443.15732 297.77783Q443.08911 297.87988 443.01602 297.97849Q442.9429 298.07709 442.86505 298.17197Q442.78717 298.26685 442.70471 298.35779Q442.62228 298.44873 442.53549 298.53552Q442.44867 298.62231 442.35773 298.70474Q442.26678 298.78717 442.17194 298.86505Q442.07703 298.9429 441.97845 299.01602Q441.87985 299.08914 441.7778 299.15735Q441.67575 299.22552 441.57047 299.28864Q441.46521 299.35175 441.35696 299.40961Q441.24869 299.46747 441.13773 299.51993Q441.02673 299.57239 440.91336 299.61938Q440.79996 299.66635 440.68439 299.7077Q440.56885 299.74908 440.45142 299.7847Q440.33395 299.82031 440.2149 299.85013Q440.09583 299.87994 439.97543 299.9039Q439.85504 299.92786 439.73364 299.94589Q439.61224 299.9639 439.49011 299.97595Q439.36795 299.98798 439.24533 299.99399Q439.12274 300 439 300L341 300Q340.87726 300 340.75464 299.99396Q340.63205 299.98795 340.50989 299.97592Q340.38773 299.96387 340.2663 299.94586Q340.1449 299.92786 340.02451 299.9039Q339.90411 299.87994 339.78506 299.85013Q339.66602 299.82031 339.54855 299.7847Q339.43109 299.74905 339.31549 299.7077Q339.19995 299.66632 339.08655 299.61935Q338.97314 299.57239 338.86218 299.5199Q338.75122 299.46747 338.64301 299.40961Q338.53473 299.35175 338.42944 299.28864Q338.32416 299.22552 338.22211 299.15732Q338.12006 299.08911 338.02148 299.01602Q337.92291 298.9429 337.82803 298.86505Q337.73315 298.78717 337.64218 298.70474Q337.55124 298.62231 337.46445 298.53552Q337.37766 298.44873 337.29523 298.35779Q337.2128 298.26685 337.13495 298.17197Q337.05707 298.07706 336.98395 297.97845Q336.91083 297.87985 336.84262 297.7778Q336.77441 297.67578 336.71133 297.5705Q336.64825 297.46521 336.59039 297.35696Q336.53253 297.24872 336.48004 297.13776Q336.42755 297.02679 336.38058 296.91339Q336.33362 296.79999 336.2923 296.68445Q336.25092 296.56885 336.2153 296.45142Q336.17966 296.33395 336.14984 296.21487Q336.12 296.09583 336.09607 295.97543Q336.07214 295.85504 336.05411 295.73364Q336.0361 295.61224 336.02408 295.49008Q336.01202 295.36792 336.00601 295.24533Q336 295.12274 336 295L336 245Q336 244.87726 336.00601 244.75467Q336.01202 244.63206 336.02408 244.50992Q336.0361 244.38776 336.05411 244.26634Q336.07214 244.14493 336.09607 244.02454Q336.12 243.90414 336.14984 243.78508Q336.17966 243.66602 336.2153 243.54857Q336.25092 243.43109 336.2923 243.31552Q336.33362 243.19997 336.38062 243.08658Q336.42755 242.97318 336.48004 242.86223Q336.53253 242.75127 336.59042 242.64302Q336.64825 242.53476 336.71136 242.42949Q336.77448 242.32419 336.84265 242.22214Q336.91083 242.12009 336.98398 242.02148Q337.0571 241.92291 337.13498 241.82805Q337.21283 241.73315 337.29529 241.64221Q337.37769 241.55125 337.46448 241.46446Q337.55127 241.37767 337.64221 241.29524Q337.73315 241.21281 337.82806 241.13495Q337.92294 241.05707 338.02155 240.98395Q338.12012 240.91083 338.22217 240.84264Q338.32422 240.77444 338.42953 240.71133Q338.53479 240.64824 338.64307 240.59039Q338.75128 240.53252 338.86224 240.48004Q338.97321 240.42755 339.08661 240.38058Q339.20001 240.33362 339.31555 240.29227Q339.43115 240.25092 339.54861 240.2153Q339.66605 240.17966 339.7851 240.14984Q339.90414 240.12001 340.02454 240.09607Q340.1449 240.07211 340.26633 240.05411Q340.38776 240.0361 340.50992 240.02408Q340.63208 240.01205 340.75467 240.00601Q340.87726 240 341 240Z"/>
	<path fill="none" stroke="black" stroke-width="1.25" stroke-miterlimit="4" d="M341 240L439 240Q439.12274 240 439.24536 240.00601Q439.36795 240.01205 439.49011 240.02409Q439.61224 240.0361 439.73364 240.05411Q439.85504 240.07211 439.9754 240.09607Q440.09583 240.12001 440.21487 240.14983Q440.33395 240.17966 440.45142 240.2153Q440.56885 240.25092 440.68442 240.29227Q440.79999 240.33362 440.91339 240.38058Q441.02679 240.42755 441.13773 240.48003Q441.24872 240.5325 441.35699 240.59038Q441.46521 240.64822 441.5705 240.71132Q441.67578 240.77443 441.77783 240.84262Q441.87988 240.9108 441.97845 240.98392Q442.07703 241.05705 442.17194 241.13493Q442.26678 241.2128 442.35773 241.29523Q442.44867 241.37766 442.53549 241.46445Q442.62228 241.55124 442.70474 241.64218Q442.78717 241.73312 442.86505 241.82802Q442.9429 241.92288 443.01599 242.02145Q443.08911 242.12006 443.15732 242.22211Q443.22552 242.32416 443.28864 242.42944Q443.35175 242.53473 443.40961 242.64299Q443.46747 242.75124 443.51993 242.86218Q443.57239 242.97314 443.61938 243.08655Q443.66638 243.19995 443.70773 243.31552Q443.74908 243.43109 443.78473 243.54855Q443.82034 243.666 443.85016 243.78506Q443.87994 243.90413 443.9039 244.02452Q443.92786 244.14491 443.94589 244.26633Q443.96393 244.38776 443.97595 244.50992Q443.98798 244.63206 443.99399 244.75465Q444 244.87726 444 245L444 295Q444 295.12274 443.99399 295.2453Q443.98798 295.36792 443.97595 295.49008Q443.96393 295.61224 443.94589 295.73364Q443.92786 295.85504 443.9039 295.97543Q443.87994 296.09583 443.85013 296.2149Q443.82031 296.33395 443.7847 296.45142Q443.74908 296.56885 443.7077 296.68442Q443.66638 296.79999 443.61938 296.91339Q443.57239 297.02679 443.51993 297.13776Q443.46747 297.24872 443.40964 297.35699Q443.35175 297.46524 443.28864 297.5705Q443.22552 297.67578 443.15732 297.77783Q443.08911 297.87988 443.01602 297.97849Q442.9429 298.07709 442.86505 298.17197Q442.78717 298.26685 442.70471 298.35779Q442.62228 298.44873 442.53549 298.53552Q442.44867 298.62231 442.35773 298.70474Q442.26678 298.78717 442.17194 298.86505Q442.07703 298.9429 441.97845 299.01602Q441.87985 299.08914 441.7778 299.15735Q441.67575 299.22552 441.57047 299.28864Q441.46521 299.35175 441.35696 299.40961Q441.24869 299.46747 441.13773 299.51993Q441.02673 299.57239 440.91336 299.61938Q440.79996 299.66635 440.68439 299.7077Q440.56885 299.74908 440.45142 299.7847Q440.33395 299.82031 440.2149 299.85013Q440.09583 299.87994 439.97543 299.9039Q439.85504 299.92786 439.73364 299.94589Q439.61224 299.9639 439.49011 299.97595Q439.36795 299.98798 439.24533 299.99399Q439.12274 300 439 300L341 300Q340.87726 300 340.75464 299.99396Q340.63205 299.98795 340.50989 299.97592Q340.38773 299.96387 340.2663 299.94586Q340.1449 299.92786 340.02451 299.9039Q339.90411 299.87994 339.78506 299.85013Q339.66602 299.82031 339.54855 299.7847Q339.43109 299.74905 339.31549 299.7077Q339.19995 299.66632 339.08655 299.61935Q338.97314 299.57239 338.86218 299.5199Q338.75122 299.46747 338.64301 299.40961Q338.53473 299.35175 338.42944 299.28864Q338.32416 299.22552 338.22211 299.15732Q338.12006 299.08911 338.02148 299.01602Q337.92291 298.9429 337.82803 298.86505Q337.73315 298.78717 337.64218 298.70474Q337.55124 298.62231 337.46445 298.53552Q337.37766 298.44873 337.29523 298.35779Q337.2128 298.26685 337.13495 298.17197Q337.05707 298.07706 336.98395 297.97845Q336.91083 297.87985 336.84262 297.7778Q336.77441 297.67578 336.71133 297.5705Q336.64825 297.46521 336.59039 297.35696Q336.53253 297.24872 336.48004 297.13776Q336.42755 297.02679 336.38058 296.91339Q336.33362 296.79999 336.2923 296.68445Q336.25092 296.56885 336.2153 296.45142Q336.17966 296.33395 336.14984 296.21487Q336.12 296.09583 336.09607 295.97543Q336.07214 295.85504 336.05411 295.73364Q336.0361 295.61224 336.02408 295.49008Q336.01202 295.36792 336.00601 295.24533Q336 295.12274 336 295L336 245Q336 244.87726 336.00601 244.75467Q336.01202 244.63206 336.02408 244.50992Q336.0361 244.38776 336.05411 244.26634Q336.07214 244.14493 336.09607 244.02454Q336.12 243.90414 336.14984 243.78508Q336.17966 243.66602 336.2153 243.54857Q336.25092 243.43109 336.2923 243.31552Q336.33362 243.19997 336.38062 243.08658Q336.42755 242.97318 336.48004 242.86223Q336.53253 242.75127 336.59042 242.64302Q336.64825 242.53476 336.71136 242.42949Q336.77448 242.32419 336.84265 242.22214Q336.91083 242.12009 336.98398 242.02148Q337.0571 241.92291 337.13498 241.82805Q337.21283 241.73315 337.29529 241.64221Q337.37769 241.55125 337.46448 241.46446Q337.55127 241.37767 337.64221 241.29524Q337.73315 241.21281 337.82806 241.13495Q337.92294 241.05707 338.02155 240.98395Q338.12012 240.91083 338.22217 240.84264Q338.32422 240.77444 338.42953 240.71133Q338.53479 240.64824 338.64307 240.59039Q338.75128 240.53252 338.86224 240.48004Q338.97321 240.42755 339.08661 240.38058Q339.20001 240.33362 339.31555 240.29227Q339.43115 240.25092 339.54861 240.2153Q339.66605 240.17966 339.7851 240.14984Q339.90414 240.12001 340.02454 240.09607Q340.1449 240.07211 340.26633 240.05411Q340.38776 240.0361 340.50992 240.02408Q340.63208 240.01205 340.75467 240.00601Q340.87726 240 341 240Z"/>
	<text font-size="14" font-family="Nimbus Sans" x="385.5, " y="273.5, ">
			A
	</text>
	<path fill="white" d="M351 240L351 240Q351 239.7545 351.01202 239.50932Q351.02408 239.26413 351.04816 239.01984Q351.0722 238.77551 351.10825 238.53268Q351.14426 238.28986 351.19214 238.04909Q351.24005 237.80832 351.29968 237.57021Q351.35931 237.33206 351.4306 237.09717Q351.50183 236.86224 351.58453 236.6311Q351.66724 236.39996 351.76117 236.17316Q351.8551 235.94635 351.96005 235.72446Q352.065 235.50253 352.18073 235.28604Q352.29645 235.06952 352.42267 234.85895Q352.54886 234.64838 352.68524 234.44427Q352.82162 234.24016 352.96786 234.04298Q353.11414 233.84581 353.26987 233.65605Q353.4256 233.46628 353.59045 233.28439Q353.75531 233.10249 353.92889 232.92891Q354.10248 232.75533 354.28439 232.59047Q354.46628 232.42561 354.65604 232.26988Q354.84583 232.11414 355.04297 231.96791Q355.24017 231.82167 355.44427 231.68529Q355.64841 231.54889 355.85898 231.4227Q356.06952 231.29649 356.28601 231.18079Q356.5025 231.06506 356.72443 230.9601Q356.94632 230.85513 357.17313 230.7612Q357.39993 230.66725 357.6311 230.58455Q357.86221 230.50186 358.09714 230.43062Q358.33203 230.35934 358.57019 230.2997Q358.80829 230.24005 359.04907 230.19215Q359.28986 230.14426 359.53271 230.10825Q359.77551 230.07222 360.01984 230.04817Q360.26413 230.02411 360.50931 230.01205Q360.75452 230 361 230L365 230Q365.24548 230 365.49066 230.01204Q365.73587 230.02409 365.98019 230.04816Q366.22449 230.0722 366.46729 230.10823Q366.71008 230.14426 366.95087 230.19214Q367.19165 230.24004 367.42975 230.29968Q367.66791 230.35934 367.9028 230.4306Q368.1377 230.50186 368.36884 230.58456Q368.59998 230.66725 368.82678 230.7612Q369.05359 230.85513 369.27551 230.96011Q369.49741 231.06506 369.71393 231.18079Q369.93042 231.29651 370.14096 231.42273Q370.3515 231.54892 370.55563 231.6853Q370.75977 231.82169 370.95694 231.96793Q371.15414 232.11417 371.34393 232.2699Q371.53369 232.42563 371.71558 232.59048Q371.89746 232.75534 372.07104 232.92892Q372.24463 233.10251 372.40948 233.28441Q372.57434 233.46631 372.7301 233.65607Q372.8858 233.84583 373.03204 234.043Q373.17828 234.24017 373.31464 234.44427Q373.45102 234.64838 373.57721 234.85895Q373.70343 235.06952 373.81918 235.28603Q373.93488 235.50252 374.03986 235.72443Q374.14484 235.94635 374.23877 236.17314Q374.33273 236.39993 374.41547 236.63107Q374.49814 236.86221 374.5694 237.09714Q374.64066 237.33205 374.70032 237.57018Q374.75995 237.8083 374.80786 238.04907Q374.85574 238.28984 374.89178 238.53268Q374.9278 238.77551 374.95184 239.01982Q374.97589 239.26411 374.98795 239.50931Q375 239.7545 375 240L375 240Q375 240.24548 374.98792 240.49066Q374.97589 240.73587 374.95184 240.98018Q374.9278 241.22447 374.89175 241.46729Q374.85574 241.71011 374.80786 241.95088Q374.75995 242.19165 374.70032 242.42978Q374.64069 242.66791 374.56943 242.90283Q374.49817 243.13776 374.41547 243.36888Q374.33273 243.60001 374.23877 243.82681Q374.14484 244.05362 374.03986 244.27554Q373.93491 244.49745 373.81921 244.71396Q373.70346 244.93045 373.57727 245.14101Q373.45105 245.35156 373.31467 245.55568Q373.17828 245.7598 373.03204 245.95697Q372.8858 246.15414 372.7301 246.34392Q372.57434 246.53368 372.40952 246.71556Q372.24463 246.89746 372.07104 247.07104Q371.89746 247.24463 371.71558 247.4095Q371.53369 247.57436 371.34393 247.7301Q371.15417 247.88582 370.95697 248.03204Q370.75977 248.17828 370.55566 248.31467Q370.35156 248.45105 370.14099 248.57726Q369.93042 248.70346 369.71393 248.8192Q369.49741 248.93491 369.27551 249.03987Q369.05359 249.14482 368.82678 249.23877Q368.59998 249.33272 368.36884 249.41542Q368.13773 249.49814 367.90283 249.5694Q367.66791 249.64066 367.42978 249.70029Q367.19165 249.75993 366.95087 249.80783Q366.71008 249.85571 366.46729 249.89175Q366.22446 249.92778 365.98016 249.95186Q365.73584 249.97591 365.49066 249.98795Q365.24548 250 365 250L361 250Q360.75452 250 360.50934 249.98795Q360.26413 249.97591 360.01984 249.95186Q359.77551 249.92778 359.53271 249.89175Q359.28986 249.85571 359.04907 249.80783Q358.80829 249.75993 358.57019 249.70029Q358.33203 249.64066 358.09714 249.5694Q357.86221 249.49814 357.6311 249.41542Q357.39993 249.33272 357.17313 249.23877Q356.94632 249.14482 356.72443 249.03986Q356.5025 248.93491 356.28601 248.81918Q356.06952 248.70346 355.85895 248.57726Q355.64838 248.45105 355.44424 248.31467Q355.24014 248.17828 355.04297 248.03204Q354.84579 247.88582 354.65604 247.7301Q354.46628 247.57436 354.28439 247.40948Q354.10248 247.24463 353.92889 247.07104Q353.75531 246.89746 353.59045 246.71556Q353.4256 246.53368 353.26987 246.34392Q353.11414 246.15414 352.9679 245.95699Q352.82166 245.7598 352.68527 245.55568Q352.54889 245.35156 352.42267 245.14102Q352.29648 244.93045 352.18076 244.71396Q352.065 244.49745 351.96005 244.27554Q351.8551 244.05362 351.76117 243.82681Q351.66724 243.60001 351.58453 243.3689Q351.50183 243.13776 351.4306 242.90285Q351.35931 242.66792 351.29968 242.42978Q351.24005 242.19165 351.19214 241.95088Q351.14426 241.71011 351.10822 241.46729Q351.0722 241.22446 351.04816 240.98016Q351.02408 240.73587 351.01205 240.49066Q351 240.24548 351 240Z"/>
	<path fill="none" stroke="black" stroke-width="1.25" stroke-miterlimit="4" d="M351 240L351 240Q351 239.7545 351.01202 239.50932Q351.02408 239.26413 351.04816 239.01984Q351.0722 238.77551 351.10825 238.53268Q351.14426 238.28986 351.19214 238.04909Q351.24005 237.80832 351.29968 237.57021Q351.35931 237.33206 351.4306 237.09717Q351.50183 236.86224 351.58453 236.6311Q351.66724 236.39996 351.76117 236.17316Q351.8551 235.94635 351.96005 235.72446Q352.065 235.50253 352.18073 235.28604Q352.29645 235.06952 352.42267 234.85895Q352.54886 234.64838 352.68524 234.44427Q352.82162 234.24016 352.96786 234.04298Q353.11414 233.84581 353.26987 233.65605Q353.4256 233.46628 353.59045 233.28439Q353.75531 233.10249 353.92889 232.92891Q354.10248 232.75533 354.28439 232.59047Q354.46628 232.42561 354.65604 232.26988Q354.84583 232.11414 355.04297 231.96791Q355.24017 231.82167 355.44427 231.68529Q355.64841 231.54889 355.85898 231.4227Q356.06952 231.29649 356.28601 231.18079Q356.5025 231.06506 356.72443 230.9601Q356.94632 230.85513 357.17313 230.7612Q357.39993 230.66725 357.6311 230.58455Q357.86221 230.50186 358.09714 230.43062Q358.33203 230.35934 358.57019 230.2997Q358.80829 230.24005 359.04907 230.19215Q359.28986 230.14426 359.53271 230.10825Q359.77551 230.07222 360.01984 230.04817Q360.26413 230.02411 360.50931 230.01205Q360.75452 230 361 230L365 230Q365.24548 230 365.49066 230.01204Q365.73587 230.02409 365.98019 230.04816Q366.22449 230.0722 366.46729 230.10823Q366.71008 230.14426 366.95087 230.19214Q367.19165 230.24004 367.42975 230.29968Q367.66791 230.35934 367.9028 230.4306Q368.1377 230.50186 368.36884 230.58456Q368.59998 230.66725 368.82678 230.7612Q369.05359 230.85513 369.27551 230.96011Q369.49741 231.06506 369.71393 231.18079Q369.93042 231.29651 370.14096 231.42273Q370.3515 231.54892 370.55563 231.6853Q370.75977 231.82169 370.95694 231.96793Q371.15414 232.11417 371.34393 232.2699Q371.53369 232.42563 371.71558 232.59048Q371.89746 232.75534 372.07104 232.92892Q372.24463 233.10251 372.40948 233.28441Q372.57434 233.46631 372.7301 233.65607Q372.8858 233.84583 373.03204 234.043Q373.17828 234.24017 373.31464 234.44427Q373.45102 234.64838 373.57721 234.85895Q373.70343 235.06952 373.81918 235.28603Q373.93488 235.50252 374.03986 235.72443Q374.14484 235.94635 374.23877 236.17314Q374.33273 236.39993 374.41547 236.63107Q374.49814 236.86221 374.5694 237.09714Q374.64066 237.33205 374.70032 237.57018Q374.75995 237.8083 374.80786 238.04907Q374.85574 238.28984 374.89178 238.53268Q374.9278 238.77551 374.95184 239.01982Q374.97589 239.26411 374.98795 239.50931Q375 239.7545 375 240L375 240Q375 240.24548 374.98792 240.49066Q374.97589 240.73587 374.95184 240.98018Q374.9278 241.22447 374.89175 241.46729Q374.85574 241.71011 374.80786 241.95088Q374.75995 242.19165 374.70032 242.42978Q374.64069 242.66791 374.56943 242.90283Q374.49817 243.13776 374.41547 243.36888Q374.33273 243.60001 374.23877 243.82681Q374.14484 244.05362 374.03986 244.27554Q373.93491 244.49745 373.81921 244.71396Q373.70346 244.93045 373.57727 245.14101Q373.45105 245.35156 373.31467 245.55568Q373.17828 245.7598 373.03204 245.95697Q372.8858 246.15414 372.7301 246.34392Q372.57434 246.53368 372.40952 246.71556Q372.24463 246.89746 372.07104 247.07104Q371.89746 247.24463 371.71558 247.4095Q371.53369 247.57436 371.34393 247.7301Q371.15417 247.88582 370.95697 248.03204Q370.75977 248.17828 370.55566 248.31467Q370.35156 248.45105 370.14099 248.57726Q369.93042 248.70346 369.71393 248.8192Q369.49741 248.93491 369.27551 249.03987Q369.05359 249.14482 368.82678 249.23877Q368.59998 249.33272 368.36884 249.41542Q368.13773 249.49814 367.90283 249.5694Q367.66791 249.64066 367.42978 249.70029Q367.19165 249.75993 366.95087 249.80783Q366.71008 249.85571 366.46729 249.89175Q366.22446 249.92778 365.98016 249.95186Q365.73584 249.97591 365.49066 249.98795Q365.24548 250 365 250L361 250Q360.75452 250 360.50934 249.98795Q360.26413 249.97591 360.01984 249.95186Q359.77551 249.92778 359.53271 249.89175Q359.28986 249.85571 359.04907 249.80783Q358.80829 249.75993 358.57019 249.70029Q358.33203 249.64066 358.09714 249.5694Q357.86221 249.49814 357.6311 249.41542Q357.39993 249.33272 357.17313 249.23877Q356.94632 249.14482 356.72443 249.03986Q356.5025 248.93491 356.28601 248.81918Q356.06952 248.70346 355.85895 248.57726Q355.64838 248.45105 355.44424 248.31467Q355.24014 248.17828 355.04297 248.03204Q354.84579 247.88582 354.65604 247.7301Q354.46628 247.57436 354.28439 247.40948Q354.10248 247.24463 353.92889 247.07104Q353.75531 246.89746 353.59045 246.71556Q353.4256 246.53368 353.26987 246.34392Q353.11414 246.15414 352.9679 245.95699Q352.82166 245.7598 352.68527 245.55568Q352.54889 245.35156 352.42267 245.14102Q352.29648 244.93045 352.18076 244.71396Q352.065 244.49745 351.96005 244.27554Q351.8551 244.05362 351.76117 243.82681Q351.66724 243.60001 351.58453 243.3689Q351.50183 243.13776 351.4306 242.90285Q351.35931 242.66792 351.29968 242.42978Q351.24005 242.19165 351.19214 241.95088Q351.14426 241.71011 351.10822 241.46729Q351.0722 241.22446 351.04816 240.98016Q351.02408 240.73587 351.01205 240.49066Q351 240.24548 351 240Z"/>
	<text font-size="14" font-family="Nimbus Sans" x="358.5, " y="243.5, ">
			P
	</text>
	<path fill="white" d="M181 105L279 105Q279.12274 105 279.2453 105.00603Q279.36792 105.01205 279.49008 105.02408Q279.61224 105.0361 279.73364 105.05412Q279.85504 105.07213 279.97543 105.09607Q280.09583 105.12001 280.2149 105.14983Q280.33395 105.17966 280.45142 105.21529Q280.56885 105.25092 280.68442 105.29227Q280.79999 105.33362 280.91339 105.38059Q281.02679 105.42756 281.13773 105.48004Q281.24872 105.53252 281.35696 105.59039Q281.46521 105.64825 281.5705 105.71135Q281.67575 105.77445 281.7778 105.84264Q281.87985 105.91084 281.97845 105.98395Q282.07706 106.05707 282.17197 106.13494Q282.26685 106.21281 282.35779 106.29524Q282.44873 106.37767 282.53552 106.46446Q282.62231 106.55125 282.70474 106.6422Q282.78717 106.73315 282.86505 106.82803Q282.9429 106.92291 283.01599 107.0215Q283.08911 107.12009 283.15732 107.22214Q283.22552 107.3242 283.28864 107.42948Q283.35175 107.53476 283.40961 107.64301Q283.46747 107.75127 283.51993 107.86222Q283.57239 107.97318 283.61938 108.08657Q283.66635 108.19997 283.7077 108.31554Q283.74908 108.43112 283.78473 108.54858Q283.82034 108.66603 283.85016 108.7851Q283.87997 108.90416 283.90393 109.02455Q283.92789 109.14494 283.94589 109.26636Q283.96393 109.38777 283.97595 109.50992Q283.98798 109.63206 283.99399 109.75466Q284 109.87726 284 110L284 160Q284 160.12274 283.99399 160.24533Q283.98798 160.36792 283.97595 160.49008Q283.96393 160.61223 283.94592 160.73364Q283.92789 160.85504 283.90393 160.97543Q283.87997 161.09583 283.85016 161.21489Q283.82034 161.33395 283.78473 161.45142Q283.74908 161.56886 283.7077 161.68442Q283.66635 161.79999 283.61938 161.91339Q283.57239 162.02679 283.51993 162.13776Q283.46747 162.24872 283.40961 162.35696Q283.35175 162.46521 283.28864 162.5705Q283.22552 162.67578 283.15732 162.77783Q283.08911 162.87988 283.01602 162.97849Q282.9429 163.07709 282.86505 163.17197Q282.78717 163.26685 282.70474 163.35779Q282.62231 163.44873 282.53552 163.53552Q282.44873 163.62231 282.35779 163.70474Q282.26685 163.78717 282.17197 163.86504Q282.07709 163.9429 281.97849 164.01601Q281.87988 164.08913 281.77783 164.15732Q281.67578 164.22551 281.5705 164.28862Q281.46521 164.35173 281.35699 164.40961Q281.24872 164.46747 281.13776 164.51993Q281.02679 164.57242 280.91339 164.61938Q280.79999 164.66635 280.68445 164.7077Q280.56885 164.74905 280.45142 164.7847Q280.33395 164.82031 280.21487 164.85014Q280.09583 164.87996 279.97543 164.90392Q279.85504 164.92786 279.73364 164.94586Q279.61224 164.96388 279.49008 164.97592Q279.36792 164.98795 279.24533 164.99397Q279.12274 165 279 165L181 165Q180.87726 165 180.75465 164.99397Q180.63206 164.98795 180.50992 164.97592Q180.38776 164.96388 180.26636 164.94588Q180.14493 164.92786 180.02454 164.90392Q179.90414 164.87996 179.7851 164.85013Q179.66602 164.82031 179.54857 164.7847Q179.43111 164.74905 179.31552 164.7077Q179.19997 164.66635 179.08656 164.61938Q178.97318 164.57242 178.86221 164.51993Q178.75125 164.46747 178.64301 164.40961Q178.53474 164.35175 178.42944 164.28864Q178.32416 164.22552 178.22211 164.15733Q178.12006 164.08914 178.02147 164.01602Q177.92288 163.9429 177.82802 163.86504Q177.73312 163.78717 177.64218 163.70474Q177.55124 163.62231 177.46445 163.53552Q177.37766 163.44873 177.29521 163.35779Q177.2128 163.26685 177.13492 163.17197Q177.05704 163.07709 176.98392 162.97849Q176.91081 162.87988 176.84262 162.77783Q176.77444 162.67578 176.71133 162.5705Q176.64824 162.46521 176.59038 162.35696Q176.5325 162.24872 176.48003 162.13776Q176.42755 162.02679 176.38058 161.91339Q176.33362 161.79999 176.29225 161.68442Q176.25092 161.56886 176.21529 161.45142Q176.17966 161.33395 176.14981 161.21489Q176.12 161.09583 176.09605 160.97543Q176.07211 160.85504 176.05411 160.73364Q176.0361 160.61223 176.02408 160.49008Q176.01205 160.36792 176.00603 160.24533Q176 160.12274 176 160L176 110Q176 109.87726 176.00601 109.75467Q176.01205 109.63206 176.02408 109.50992Q176.0361 109.38776 176.05411 109.26634Q176.07211 109.14492 176.09607 109.02454Q176.12001 108.90415 176.14983 108.78509Q176.17966 108.66603 176.2153 108.54858Q176.25093 108.43112 176.2923 108.31554Q176.33365 108.19998 176.38062 108.08658Q176.42758 107.97318 176.48006 107.86222Q176.53253 107.75127 176.59041 107.64302Q176.64827 107.53477 176.71136 107.42949Q176.77448 107.3242 176.84265 107.22215Q176.91084 107.12009 176.98396 107.0215Q177.05708 106.92291 177.13496 106.82803Q177.21283 106.73315 177.29526 106.6422Q177.37767 106.55125 177.46446 106.46447Q177.55124 106.37767 177.6422 106.29524Q177.73315 106.21281 177.82803 106.13496Q177.92291 106.05708 178.0215 105.98396Q178.12009 105.91084 178.22214 105.84265Q178.32419 105.77446 178.42949 105.71136Q178.53476 105.64825 178.64301 105.59039Q178.75125 105.53253 178.86223 105.48004Q178.97318 105.42757 179.08658 105.3806Q179.19998 105.33363 179.31555 105.29228Q179.43111 105.25093 179.54857 105.2153Q179.66602 105.17966 179.7851 105.14983Q179.90414 105.12001 180.02454 105.09607Q180.14493 105.07213 180.26634 105.05412Q180.38776 105.0361 180.50992 105.02408Q180.63206 105.01205 180.75465 105.00602Q180.87726 105 181 105Z"/>
	<path fill="none" stroke="black" stroke-width="1.25" stroke-miterlimit="4" d="M181 105L279 105Q279.12274 105 279.2453 105.00603Q279.36792 105.01205 279.49008 105.02408Q279.61224 105.0361 279.73364 105.05412Q279.85504 105.07213 279.97543 105.09607Q280.09583 105.12001 280.2149 105.14983Q280.33395 105.17966 280.45142 105.21529Q280.56885 105.25092 280.68442 105.29227Q280.79999 105.33362 280.91339 105.38059Q281.02679 105.42756 281.13773 105.48004Q281.24872 105.53252 281.35696 105.59039Q281.46521 105.64825 281.5705 105.71135Q281.67575 105.77445 281.7778 105.84264Q281.87985 105.91084 281.97845 105.98395Q282.07706 106.05707 282.17197 106.13494Q282.26685 106.21281 282.35779 106.29524Q282.44873 106.37767 282.53552 106.46446Q282.62231 106.55125 282.70474 106.6422Q282.78717 106.73315 282.86505 106.82803Q282.9429 106.92291 283.01599 107.0215Q283.08911 107.12009 283.15732 107.22214Q283.22552 107.3242 283.28864 107.42948Q283.35175 107.53476 283.40961 107.64301Q283.46747 107.75127 283.51993 107.86222Q283.57239 107.97318 283.61938 108.08657Q283.66635 108.19997 283.7077 108.31554Q283.74908 108.43112 283.78473 108.54858Q283.82034 108.66603 283.85016 108.7851Q283.87997 108.90416 283.90393 109.02455Q283.92789 109.14494 283.94589 109.26636Q283.96393 109.38777 283.97595 109.50992Q283.98798 109.63206 283.99399 109.75466Q284 109.87726 284 110L284 160Q284 160.12274 283.99399 160.24533Q283.98798 160.36792 283.97595 160.49008Q283.96393 160.61223 283.94592 160.73364Q283.92789 160.85504 283.90393 160.97543Q283.87997 161.09583 283.85016 161.21489Q283.82034 161.33395 283.78473 161.45142Q283.74908 161.56886 283.7077 161.68442Q283.66635 161.79999 283.61938 161.91339Q283.57239 162.02679 283.51993 162.13776Q283.46747 162.24872 283.40961 162.35696Q283.35175 162.46521 283.28864 162.5705Q283.22552 162.67578 283.15732 162.77783Q283.08911 162.87988 283.01602 162.97849Q282.9429 163.07709 282.86505 163.17197Q282.78717 163.26685 282.70474 163.35779Q282.62231 163.44873 282.53552 163.53552Q282.44873 163.62231 282.35779 163.70474Q282.26685 163.78717 282.17197 163.86504Q282.07709 163.9429 281.97849 164.01601Q281.87988 164.08913 281.77783 164.15732Q281.67578 164.22551 281.5705 164.28862Q281.46521 164.35173 281.35699 164.40961Q281.24872 164.46747 281.13776 164.51993Q281.02679 164.57242 280.91339 164.61938Q280.79999 164.66635 280.68445 164.7077Q280.56885 164.74905 280.45142 164.7847Q280.33395 164.82031 280.21487 164.85014Q280.09583 164.87996 279.97543 164.90392Q279.85504 164.92786 279.73364 164.94586Q279.61224 164.96388 279.49008 164.97592Q279.36792 164.98795 279.24533 164.99397Q279.12274 165 279 165L181 165Q180.87726 165 180.75465 164.99397Q180.63206 164.98795 180.50992 164.97592Q180.38776 164.96388 180.26636 164.94588Q180.14493 164.92786 180.02454 164.90392Q179.90414 164.87996 179.7851 164.85013Q179.66602 164.82031 179.54857 164.7847Q179.43111 164.74905 179.31552 164.7077Q179.19997 164.66635 179.08656 164.61938Q178.97318 164.57242 178.86221 164.51993Q178.75125 164.46747 178.64301 164.40961Q178.53474 164.35175 178.42944 164.28864Q178.32416 164.22552 178.22211 164.15733Q178.12006 164.08914 178.02147 164.01602Q177.92288 163.9429 177.82802 163.86504Q177.73312 163.78717 177.64218 163.70474Q177.55124 163.62231 177.46445 163.53552Q177.37766 163.44873 177.29521 163.35779Q177.2128 163.26685 177.13492 163.17197Q177.05704 163.07709 176.98392 162.97849Q176.91081 162.87988 176.84262 162.77783Q176.77444 162.67578 176.71133 162.5705Q176.64824 162.46521 176.59038 162.35696Q176.5325 162.24872 176.48003 162.13776Q176.42755 162.02679 176.38058 161.91339Q176.33362 161.79999 176.29225 161.68442Q176.25092 161.56886 176.21529 161.45142Q176.17966 161.33395 176.14981 161.21489Q176.12 161.09583 176.09605 160.97543Q176.07211 160.85504 176.05411 160.73364Q176.0361 160.61223 176.02408 160.49008Q176.01205 160.36792 176.00603 160.24533Q176 160.12274 176 160L176 110Q176 109.87726 176.00601 109.75467Q176.01205 109.63206 176.02408 109.50992Q176.0361 109.38776 176.05411 109.26634Q176.07211 109.14492 176.09607 109.02454Q176.12001 108.90415 176.14983 108.78509Q176.17966 108.66603 176.2153 108.54858Q176.25093 108.43112 176.2923 108.31554Q176.33365 108.19998 176.38062 108.08658Q176.42758 107.97318 176.48006 107.86222Q176.53253 107.75127 176.59041 107.64302Q176.64827 107.53477 176.71136 107.42949Q176.77448 107.3242 176.84265 107.22215Q176.91084 107.12009 176.98396 107.0215Q177.05708 106.92291 177.13496 106.82803Q177.21283 106.73315 177.29526 106.6422Q177.37767 106.55125 177.46446 106.46447Q177.55124 106.37767 177.6422 106.29524Q177.73315 106.21281 177.82803 106.13496Q177.92291 106.05708 178.0215 105.98396Q178.12009 105.91084 178.22214 105.84265Q178.32419 105.77446 178.42949 105.71136Q178.53476 105.64825 178.64301 105.59039Q178.75125 105.53253 178.86223 105.48004Q178.97318 105.42757 179.08658 105.3806Q179.19998 105.33363 179.31555 105.29228Q179.43111 105.25093 179.54857 105.2153Q179.66602 105.17966 179.7851 105.14983Q179.90414 105.12001 180.02454 105.09607Q180.14493 105.07213 180.26634 105.05412Q180.38776 105.0361 180.50992 105.02408Q180.63206 105.01205 180.75465 105.00602Q180.87726 105 181 105Z"/>
	<text font-size="14" font-family="Nimbus Sans" x="225.5, " y="138.5, ">
			B
	</text>
	<path fill="none" stroke="black" stroke-width="1.25" stroke-miterlimit="4" d="M218 270L206 270"/>
	<path fill="none" stroke="black" stroke-width="1.25" stroke-miterlimit="4" d="M242 270L254 270"/>
	<path fill="white" d="M218 258L242 258L242 282L218 282L218 258Z"/>
	<path fill="none" stroke="black" stroke-width="1.25" stroke-miterlimit="4" d="M218 258L242 258L242 282L218 282L218 258Z"/>
	<path fill="none" stroke="black" stroke-width="1.25" stroke-miterlimit="4" d="M206 270L139 270"/>
	<path fill="none" stroke="black" stroke-width="1.25" stroke-miterlimit="4" d="M254 270L326 270"/>
	<path d="M326 265L336 270L326 275L326 265Z"/>
	<path fill="none" stroke="black" stroke-width="1.25" stroke-miterlimit="4" d="M326 265L336 270L326 275L326 265Z"/>
	<path fill="none" stroke="black" stroke-width="1.25" stroke-miterlimit="4" d="M230 165L230 248"/>
	<path fill="white" d="M235 253Q235 253.12274 234.99396 253.24533Q234.98795 253.36792 234.97592 253.49008Q234.96388 253.61223 234.94588 253.73364Q234.92786 253.85504 234.90392 253.97543Q234.87997 254.09583 234.85013 254.21487Q234.82031 254.33395 234.78468 254.45143Q234.74905 254.56888 234.70769 254.68445Q234.66635 254.79999 234.61937 254.91339Q234.57239 255.02679 234.51991 255.13776Q234.46744 255.24872 234.40959 255.35698Q234.35172 255.46523 234.2886 255.5705Q234.22549 255.67578 234.15732 255.77783Q234.08913 255.87988 234.01602 255.97847Q233.9429 256.07706 233.86505 256.17194Q233.78717 256.26678 233.70474 256.35776Q233.6223 256.44873 233.53551 256.53552Q233.44872 256.62231 233.35777 256.70474Q233.26682 256.78717 233.17195 256.86505Q233.07706 256.9429 232.97847 257.01602Q232.87988 257.08911 232.77783 257.15732Q232.67578 257.22552 232.5705 257.28864Q232.46521 257.35175 232.35696 257.40961Q232.24872 257.46747 232.13776 257.51993Q232.02679 257.57239 231.91339 257.61938Q231.79999 257.66638 231.68442 257.70773Q231.56886 257.74908 231.45142 257.78473Q231.33395 257.82034 231.21489 257.85016Q231.09583 257.88 230.97543 257.90393Q230.85504 257.92789 230.73364 257.94592Q230.61224 257.96393 230.4901 257.97595Q230.36794 257.98798 230.24535 257.99396Q230.12274 258 230 258Q229.87726 258 229.75467 257.99396Q229.63208 257.98798 229.50992 257.97595Q229.38776 257.96393 229.26634 257.94589Q229.14493 257.92789 229.02454 257.90393Q228.90414 257.88 228.7851 257.85016Q228.66603 257.82034 228.54858 257.78473Q228.43112 257.74908 228.31554 257.70773Q228.19997 257.66638 228.08656 257.61938Q227.97318 257.57239 227.86221 257.51993Q227.75125 257.46747 227.64301 257.40961Q227.53476 257.35175 227.42947 257.28864Q227.32419 257.22552 227.22212 257.15732Q227.12006 257.08911 227.02148 257.01599Q226.92288 256.9429 226.828 256.86505Q226.73312 256.78717 226.64218 256.70474Q226.55124 256.62231 226.46445 256.53552Q226.37766 256.44873 226.29523 256.35776Q226.2128 256.26678 226.13493 256.17194Q226.05707 256.07706 225.98393 255.97847Q225.91081 255.87988 225.84262 255.77783Q225.77443 255.67578 225.71133 255.5705Q225.64824 255.46523 225.59039 255.35698Q225.53252 255.24872 225.48004 255.13776Q225.42755 255.02679 225.38057 254.91339Q225.3336 254.79999 225.29225 254.68443Q225.25092 254.56888 225.21529 254.45142Q225.17966 254.33395 225.14983 254.21489Q225.12 254.09583 225.09605 253.97543Q225.07211 253.85504 225.05411 253.73364Q225.0361 253.61223 225.02408 253.49008Q225.01204 253.36792 225.00601 253.24533Q225 253.12274 225 253Q225 252.87726 225.00601 252.75467Q225.01204 252.63205 225.02408 252.50992Q225.0361 252.38776 225.05411 252.26633Q225.07211 252.1449 225.09605 252.02452Q225.12 251.90414 225.14981 251.78508Q225.17964 251.66602 225.21527 251.54857Q225.2509 251.43109 225.29224 251.31552Q225.3336 251.19995 225.38057 251.08656Q225.42755 250.97318 225.48003 250.86221Q225.5325 250.75125 225.59038 250.64301Q225.64822 250.53474 225.71132 250.42947Q225.77443 250.32419 225.84262 250.22212Q225.91081 250.12006 225.98393 250.02148Q226.05705 249.92288 226.13492 249.82802Q226.2128 249.73312 226.29523 249.64218Q226.37766 249.55124 226.46445 249.46445Q226.55124 249.37766 226.64218 249.29524Q226.73312 249.2128 226.828 249.13495Q226.92288 249.05707 227.02145 248.98393Q227.12006 248.91081 227.22211 248.84262Q227.32416 248.77443 227.42944 248.71133Q227.53473 248.64822 227.64299 248.59038Q227.75122 248.5325 227.86218 248.48004Q227.97314 248.42755 228.08655 248.38058Q228.19995 248.33362 228.31552 248.29227Q228.43109 248.25093 228.54855 248.2153Q228.66602 248.17967 228.78508 248.14984Q228.90414 248.12003 229.02452 248.09607Q229.14491 248.07211 229.26633 248.05411Q229.38776 248.0361 229.50992 248.02409Q229.63208 248.01205 229.75467 248.00601Q229.87726 248 230 248Q230.12274 248 230.24533 248.00603Q230.36795 248.01205 230.4901 248.02408Q230.61224 248.0361 230.73366 248.05411Q230.85507 248.07211 230.97545 248.09607Q231.09583 248.12003 231.2149 248.14984Q231.33397 248.17969 231.45143 248.21532Q231.56888 248.25095 231.68445 248.2923Q231.80002 248.33365 231.91342 248.38062Q232.02682 248.42758 232.13777 248.48007Q232.24873 248.53253 232.35699 248.59041Q232.46524 248.64825 232.5705 248.71136Q232.67578 248.77446 232.77785 248.84265Q232.87991 248.91083 232.9785 248.98396Q233.07709 249.05707 233.17198 249.13495Q233.26685 249.21283 233.3578 249.29526Q233.44875 249.37769 233.53554 249.46448Q233.62233 249.55127 233.70476 249.64221Q233.7872 249.73315 233.86507 249.82805Q233.94293 249.92291 234.01602 250.0215Q234.08914 250.12009 234.15733 250.22214Q234.22552 250.32419 234.28862 250.42947Q234.35175 250.53476 234.40961 250.64302Q234.46747 250.75125 234.51994 250.86221Q234.57242 250.97318 234.6194 251.08658Q234.66638 251.19998 234.70773 251.31555Q234.74908 251.43112 234.78473 251.54858Q234.82034 251.66603 234.85016 251.7851Q234.87997 251.90414 234.90393 252.02454Q234.92787 252.14493 234.94589 252.26633Q234.9639 252.38776 234.97592 252.50992Q234.98795 252.63205 234.99396 252.75465Q235 252.87726 235 253Z"/>
	<path fill="none" stroke="black" stroke-width="1.25" stroke-miterlimit="4" d="M235 253Q235 253.12274 234.99396 253.24533Q234.98795 253.36792 234.97592 253.49008Q234.96388 253.61223 234.94588 253.73364Q234.92786 253.85504 234.90392 253.97543Q234.87997 254.09583 234.85013 254.21487Q234.82031 254.33395 234.78468 254.45143Q234.74905 254.56888 234.70769 254.68445Q234.66635 254.79999 234.61937 254.91339Q234.57239 255.02679 234.51991 255.13776Q234.46744 255.24872 234.40959 255.35698Q234.35172 255.46523 234.2886 255.5705Q234.22549 255.67578 234.15732 255.77783Q234.08913 255.87988 234.01602 255.97847Q233.9429 256.07706 233.86505 256.17194Q233.78717 256.26678 233.70474 256.35776Q233.6223 256.44873 233.53551 256.53552Q233.44872 256.62231 233.35777 256.70474Q233.26682 256.78717 233.17195 256.86505Q233.07706 256.9429 232.97847 257.01602Q232.87988 257.08911 232.77783 257.15732Q232.67578 257.22552 232.5705 257.28864Q232.46521 257.35175 232.35696 257.40961Q232.24872 257.46747 232.13776 257.51993Q232.02679 257.57239 231.91339 257.61938Q231.79999 257.66638 231.68442 257.70773Q231.56886 257.74908 231.45142 257.78473Q231.33395 257.82034 231.21489 257.85016Q231.09583 257.88 230.97543 257.90393Q230.85504 257.92789 230.73364 257.94592Q230.61224 257.96393 230.4901 257.97595Q230.36794 257.98798 230.24535 257.99396Q230.12274 258 230 258Q229.87726 258 229.75467 257.99396Q229.63208 257.98798 229.50992 257.97595Q229.38776 257.96393 229.26634 257.94589Q229.14493 257.92789 229.02454 257.90393Q228.90414 257.88 228.7851 257.85016Q228.66603 257.82034 228.54858 257.78473Q228.43112 257.74908 228.31554 257.70773Q228.19997 257.66638 228.08656 257.61938Q227.97318 257.57239 227.86221 257.51993Q227.75125 257.46747 227.64301 257.40961Q227.53476 257.35175 227.42947 257.28864Q227.32419 257.22552 227.22212 257.15732Q227.12006 257.08911 227.02148 257.01599Q226.92288 256.9429 226.828 256.86505Q226.73312 256.78717 226.64218 256.70474Q226.55124 256.62231 226.46445 256.53552Q226.37766 256.44873 226.29523 256.35776Q226.2128 256.26678 226.13493 256.17194Q226.05707 256.07706 225.98393 255.97847Q225.91081 255.87988 225.84262 255.77783Q225.77443 255.67578 225.71133 255.5705Q225.64824 255.46523 225.59039 255.35698Q225.53252 255.24872 225.48004 255.13776Q225.42755 255.02679 225.38057 254.91339Q225.3336 254.79999 225.29225 254.68443Q225.25092 254.56888 225.21529 254.45142Q225.17966 254.33395 225.14983 254.21489Q225.12 254.09583 225.09605 253.97543Q225.07211 253.85504 225.05411 253.73364Q225.0361 253.61223 225.02408 253.49008Q225.01204 253.36792 225.00601 253.24533Q225 253.12274 225 253Q225 252.87726 225.00601 252.75467Q225.01204 252.63205 225.02408 252.50992Q225.0361 252.38776 225.05411 252.26633Q225.07211 252.1449 225.09605 252.02452Q225.12 251.90414 225.14981 251.78508Q225.17964 251.66602 225.21527 251.54857Q225.2509 251.43109 225.29224 251.31552Q225.3336 251.19995 225.38057 251.08656Q225.42755 250.97318 225.48003 250.86221Q225.5325 250.75125 225.59038 250.64301Q225.64822 250.53474 225.71132 250.42947Q225.77443 250.32419 225.84262 250.22212Q225.91081 250.12006 225.98393 250.02148Q226.05705 249.92288 226.13492 249.82802Q226.2128 249.73312 226.29523 249.64218Q226.37766 249.55124 226.46445 249.46445Q226.55124 249.37766 226.64218 249.29524Q226.73312 249.2128 226.828 249.13495Q226.92288 249.05707 227.02145 248.98393Q227.12006 248.91081 227.22211 248.84262Q227.32416 248.77443 227.42944 248.71133Q227.53473 248.64822 227.64299 248.59038Q227.75122 248.5325 227.86218 248.48004Q227.97314 248.42755 228.08655 248.38058Q228.19995 248.33362 228.31552 248.29227Q228.43109 248.25093 228.54855 248.2153Q228.66602 248.17967 228.78508 248.14984Q228.90414 248.12003 229.02452 248.09607Q229.14491 248.07211 229.26633 248.05411Q229.38776 248.0361 229.50992 248.02409Q229.63208 248.01205 229.75467 248.00601Q229.87726 248 230 248Q230.12274 248 230.24533 248.00603Q230.36795 248.01205 230.4901 248.02408Q230.61224 248.0361 230.73366 248.05411Q230.85507 248.07211 230.97545 248.09607Q231.09583 248.12003 231.2149 248.14984Q231.33397 248.17969 231.45143 248.21532Q231.56888 248.25095 231.68445 248.2923Q231.80002 248.33365 231.91342 248.38062Q232.02682 248.42758 232.13777 248.48007Q232.24873 248.53253 232.35699 248.59041Q232.46524 248.64825 232.5705 248.71136Q232.67578 248.77446 232.77785 248.84265Q232.87991 248.91083 232.9785 248.98396Q233.07709 249.05707 233.17198 249.13495Q233.26685 249.21283 233.3578 249.29526Q233.44875 249.37769 233.53554 249.46448Q233.62233 249.55127 233.70476 249.64221Q233.7872 249.73315 233.86507 249.82805Q233.94293 249.92291 234.01602 250.0215Q234.08914 250.12009 234.15733 250.22214Q234.22552 250.32419 234.28862 250.42947Q234.35175 250.53476 234.40961 250.64302Q234.46747 250.75125 234.51994 250.86221Q234.57242 250.97318 234.6194 251.08658Q234.66638 251.19998 234.70773 251.31555Q234.74908 251.43112 234.78473 251.54858Q234.82034 251.66603 234.85016 251.7851Q234.87997 251.90414 234.90393 252.02454Q234.92787 252.14493 234.94589 252.26633Q234.9639 252.38776 234.97592 252.50992Q234.98795 252.63205 234.99396 252.75465Q235 252.87726 235 253Z"/>
</svg>
