<svg xmlns="http://www.w3.org/2000/svg" viewBox="0 0 465.0 330.0">
	<g id="1184b8c7-25fc-4936-b02c-115b52a9afb0" class="SBGNPDLayout">
		<g fill-opacity="1.0" fill="rgb(255, 255, 255)" id="1184b8c7-25fc-4936-b02c-115b52a9afb0_own" class="SBGNPDLayout_own">
			<path d="M 15.0 80.0 L 465.0 80.0 L 465.0 330.0 L 15.0 330.0 Z">
			</path>
		</g>
		<g id="glyph2" class="MacromoleculeLayout">
			<g fill-opacity="1.0" fill="rgb(255, 255, 255)" stroke-opacity="1.0" stroke="rgb(0, 0, 0)" stroke-width="1.25" id="glyph2_own" class="MacromoleculeLayout_own">
				<path d="M 36.0 240.0 L 134.0 240.0 A 5.0 5.0 0 0 1 139.0 245.0 L 139.0 295.0 A 5.0 5.0 0 0 1 134.0 300.0 L 36.0 300.0 A 5.0 5.0 0 0 1 31.0 295.0 L 31.0 245.0 A 5.0 5.0 0 0 1 36.0 240.0 Z">
				</path>
			</g>
			<g fill-opacity="1.0" fill="rgb(0, 0, 0)" font-family="DejaVu Sans" font-size="11.0" font-style="normal" font-weight="normal" stroke="none" id="b8ab1ce2-d1eb-4f63-91fd-5de51c794e4c" class="TextLayout">
				<text x="81.2344" y="273.8047">
				A
				</text>
			</g>
			<g id="glyph2a" class="StateVariableLayout">
				<g fill-opacity="1.0" fill="rgb(255, 255, 255)" stroke-opacity="1.0" stroke="rgb(0, 0, 0)" stroke-width="1.25" id="glyph2a_own" class="StateVariableLayout_own">
					<rect x="48.0" y="230.0" width="20.0" height="20.0" rx="10.0" ry="10.0">
					</rect>
				</g>
				<g fill-opacity="1.0" fill="rgb(0, 0, 0)" font-family="DejaVu Sans" font-size="9.0" font-style="normal" font-weight="normal" stroke="none" id="1cb2916c-b5a7-470a-a041-aff39b2fd255" class="TextLayout">
					<text x="58.0" y="243.1172">
					
					</text>
				</g>
			</g>
		</g>
		<g id="glyph1" class="MacromoleculeLayout">
			<g fill-opacity="1.0" fill="rgb(255, 255, 255)" stroke-opacity="1.0" stroke="rgb(0, 0, 0)" stroke-width="1.25" id="glyph1_own" class="MacromoleculeLayout_own">
				<path d="M 341.0 240.0 L 439.0 240.0 A 5.0 5.0 0 0 1 444.0 245.0 L 444.0 295.0 A 5.0 5.0 0 0 1 439.0 300.0 L 341.0 300.0 A 5.0 5.0 0 0 1 336.0 295.0 L 336.0 245.0 A 5.0 5.0 0 0 1 341.0 240.0 Z">
				</path>
			</g>
			<g fill-opacity="1.0" fill="rgb(0, 0, 0)" font-family="DejaVu Sans" font-size="11.0" font-style="normal" font-weight="normal" stroke="none" id="dd78fd13-554c-4584-8a1b-35ea59795abe" class="TextLayout">
				<text x="386.2344" y="273.8047">
				A
				</text>
			</g>
			<g id="glyph1a" class="StateVariableLayout">
				<g fill-opacity="1.0" fill="rgb(255, 255, 255)" stroke-opacity="1.0" stroke="rgb(0, 0, 0)" stroke-width="1.25" id="glyph1a_own" class="StateVariableLayout_own">
					<rect x="351.0" y="230.0" width="24.0" height="20.0" rx="10.0" ry="10.0">
					</rect>
				</g>
				<g fill-opacity="1.0" fill="rgb(0, 0, 0)" font-family="DejaVu Sans" font-size="9.0" font-style="normal" font-weight="normal" stroke="none" id="f20aaf55-16be-44bd-8711-9556247b09c2" class="TextLayout">
					<text x="360.2891" y="243.1172">
					P
					</text>
				</g>
			</g>
		</g>
		<g id="glyph3" class="MacromoleculeLayout">
			<g fill-opacity="1.0" fill="rgb(255, 255, 255)" stroke-opacity="1.0" stroke="rgb(0, 0, 0)" stroke-width="1.25" id="glyph3_own" class="MacromoleculeLayout_own">
				<path d="M 181.0 105.0 L 279.0 105.0 A 5.0 5.0 0 0 1 284.0 110.0 L 284.0 160.0 A 5.0 5.0 0 0 1 279.0 165.0 L 181.0 165.0 A 5.0 5.0 0 0 1 176.0 160.0 L 176.0 110.0 A 5.0 5.0 0 0 1 181.0 105.0 Z">
				</path>
			</g>
			<g fill-opacity="1.0" fill="rgb(0, 0, 0)" font-family="DejaVu Sans" font-size="11.0" font-style="normal" font-weight="normal" stroke="none" id="9b78588c-7bb7-4bd1-9f82-2774e8fb7bf1" class="TextLayout">
				<text x="226.2266" y="138.8047">
				B
				</text>
			</g>
		</g>
		<g id="glyph4" class="GenericProcessLayout">
			<g fill-opacity="1.0" fill="rgb(255, 255, 255)" stroke-opacity="1.0" stroke="rgb(0, 0, 0)" stroke-width="1.25" id="glyph4_own" class="GenericProcessLayout_own">
				<path d="M 218.0 270.0 L 206.0 270.0">
				</path>
				<path d="M 242.0 270.0 L 254.0 270.0">
				</path>
				<path d="M 218.0 258.0 L 242.0 258.0 L 242.0 282.0 L 218.0 282.0 L 218.0 258.0 Z">
				</path>
			</g>
		</g>
		<g id="f1d036bb-7e5a-45d1-8a80-3cb5eea406e9" class="ConsumptionLayout">
			<g id="f1d036bb-7e5a-45d1-8a80-3cb5eea406e9_own" class="ConsumptionLayout_own">
				<path fill="none" stroke-opacity="1.0" stroke="rgb(0, 0, 0)" stroke-width="1.25" id="f1d036bb-7e5a-45d1-8a80-3cb5eea406e9_path" class="ConsumptionLayout_path" d="M 206.0 270.0 L 139.0 270.0">
				</path>
				<g fill-opacity="1.0" fill="rgb(255, 255, 255)" stroke-opacity="1.0" stroke="rgb(0, 0, 0)" stroke-width="1.25" id="f1d036bb-7e5a-45d1-8a80-3cb5eea406e9_arrowhead" class="ConsumptionLayout_arrowhead">
				</g>
			</g>
		</g>
		<g id="e714ed78-4229-4a9d-80ae-84aea6ea5165" class="ProductionLayout">
			<g id="e714ed78-4229-4a9d-80ae-84aea6ea5165_own" class="ProductionLayout_own">
				<path fill="none" stroke-opacity="1.0" stroke="rgb(0, 0, 0)" stroke-width="1.25" id="e714ed78-4229-4a9d-80ae-84aea6ea5165_path" class="ProductionLayout_path" d="M 254.0 270.0 L 326.0 270.0">
				</path>
				<g fill-opacity="1.0" fill="rgb(0, 0, 0)" stroke-opacity="1.0" stroke="rgb(0, 0, 0)" stroke-width="1.25" id="e714ed78-4229-4a9d-80ae-84aea6ea5165_arrowhead" class="ProductionLayout_arrowhead">
					<path d="M 326.0 265.0 L 336.0 270.0 L 326.0 275.0 Z">
					</path>
				</g>
			</g>
		</g>
		<g id="f30923ff-8c74-4390-9945-e0aa2b7330e8" class="CatalysisLayout">
			<g id="f30923ff-8c74-4390-9945-e0aa2b7330e8_own" class="CatalysisLayout_own">
				<path fill="none" stroke-opacity="1.0" stroke="rgb(0, 0, 0)" stroke-width="1.25" id="f30923ff-8c74-4390-9945-e0aa2b7330e8_path" class="CatalysisLayout_path" d="M 230.0 165.0 L 230.0 248.0">
				</path>
				<g fill-opacity="1.0" fill="rgb(255, 255, 255)" stroke-opacity="1.0" stroke="rgb(0, 0, 0)" stroke-width="1.25" id="f30923ff-8c74-4390-9945-e0aa2b7330e8_arrowhead" class="CatalysisLayout_arrowhead">
					<path d="M 235.0 253.0 A 5.0 5.0 90.0 0 1 230.0 258.0 A 5.0 5.0 90.0 0 1 225.0 253.0 A 5.0 5.0 90.0 0 1 230.0 248.0 A 5.0 5.0 90.0 0 1 235.0 253.0 Z">
					</path>
				</g>
			</g>
		</g>
	</g>
</svg>