<svg xmlns="http://www.w3.org/2000/svg" viewBox="0 0 444.0 300.0">
<defs>
</defs>
<g fill-opacity="1.0" fill="rgb(255, 255, 255)">
<path d="M 0.0 0.0 L 444.0 0.0 L 444.0 300.0 L 0.0 300.0 Z">
</path>
<g stroke-opacity="1.0" stroke="rgb(0, 0, 0)" fill-opacity="1.0" fill="rgb(255, 255, 255)" stroke-width="1">
<g>
<g>
<rect x="31.0" y="240.0" width="108.0" height="60.0" rx="10" ry="10">
</rect>
</g>
</g>
<text x="79.0" y="277.0" font-size="20" font-family="Arial" stroke="none" fill-opacity="1.0" fill="rgb(0, 0, 0)">
A
</text>
<g stroke-opacity="1.0" stroke="rgb(0, 0, 0)" fill-opacity="1.0" fill="rgb(255, 255, 255)" stroke-width="1">
<g>
<g>
<path d="M 58.0 230.0 L 58.0 230.0 A 10.0 10.0 0 0 1 58.0 250.0 L 58.0 250.0 A 10.0 10.0 0 0 1 58.0 230.0 Z">
</path>
</g>
</g>
<text x="58.0" y="243.0" font-size="8" font-family="Arial" stroke="none" fill-opacity="1.0" fill="rgb(0, 0, 0)">

</text>
</g>
</g>
<g stroke-opacity="1.0" stroke="rgb(0, 0, 0)" fill-opacity="1.0" fill="rgb(255, 255, 255)" stroke-width="1">
<g>
<g>
<rect x="336.0" y="240.0" width="108.0" height="60.0" rx="10" ry="10">
</rect>
</g>
</g>
<text x="384.0" y="277.0" font-size="20" font-family="Arial" stroke="none" fill-opacity="1.0" fill="rgb(0, 0, 0)">
A
</text>
<g stroke-opacity="1.0" stroke="rgb(0, 0, 0)" fill-opacity="1.0" fill="rgb(255, 255, 255)" stroke-width="1">
<g>
<g>
<path d="M 361.0 230.0 L 365.0 230.0 A 10.0 10.0 0 0 1 365.0 250.0 L 361.0 250.0 A 10.0 10.0 0 0 1 361.0 230.0 Z">
</path>
</g>
</g>
<text x="361.0" y="243.0" font-size="8" font-family="Arial" stroke="none" fill-opacity="1.0" fill="rgb(0, 0, 0)">
P
</text>
</g>
</g>
<g stroke-opacity="1.0" stroke="rgb(0, 0, 0)" fill-opacity="1.0" fill="rgb(255, 255, 255)" stroke-width="1">
<g>
<g>
<rect x="176.0" y="105.0" width="108.0" height="60.0" rx="10" ry="10">
</rect>
</g>
</g>
<text x="224.0" y="142.0" font-size="20" font-family="Arial" stroke="none" fill-opacity="1.0" fill="rgb(0, 0, 0)">
B
</text>
</g>
<g stroke-opacity="1.0" stroke="rgb(0, 0, 0)" fill-opacity="1.0" fill="rgb(255, 255, 255)" stroke-width="1">
<g>
<path d="M 218.0 270.0 L 206.0 270.0">
</path>
<path d="M 242.0 270.0 L 254.0 270.0">
</path>
<g>
<rect x="218.0" y="258.0" width="24.0" height="24.0" rx="0" ry="0">
</rect>
</g>
</g>
</g>
<g stroke-opacity="1.0" stroke="rgb(0, 0, 0)" stroke-width="1">
<path d="M 139.0 270.0 L 206.0 270.0">
</path>
</g>
<g stroke-opacity="1.0" stroke="rgb(0, 0, 0)" fill-opacity="1.0" fill="rgb(0, 0, 0)" stroke-width="1">
<path d="M 254.0 270.0 L 324.0 270.0">
</path>
<path d="M 324.0 270.0 L 324.0 264.0 L 336.0 270.0 L 324.0 276.0 Z" transform="rotate(0.0 324.0 270.0)">
</path>
</g>
<g stroke-opacity="1.0" stroke="rgb(0, 0, 0)" fill-opacity="1.0" fill="rgb(255, 255, 255)" stroke-width="1">
<path d="M 230.0 165.0 L 230.0 247.0">
</path>
<ellipse cx="235.5" cy="247.0" rx="5.5" ry="5.5" transform="rotate(90.0 230.0 247.0)">
</ellipse>
</g>
</g>
</svg>